<svg width="2124" height="512" viewBox="0 0 2124 512" fill="none" xmlns="http://www.w3.org/2000/svg">
<path d="M256 512C397.385 512 512 397.385 512 256C512 114.615 397.385 0 256 0C114.615 0 0 114.615 0 256C0 397.385 114.615 512 256 512Z" fill="white"/>
<path d="M212.303 70.0046C214.077 70.0091 215.85 70.0121 217.623 70.0144C221.768 70.0219 225.914 70.0399 230.059 70.0624C234.79 70.0879 239.521 70.0999 244.251 70.1112C253.958 70.1344 263.664 70.1742 273.371 70.2245C272.508 73.0879 271.591 75.8042 270.389 78.5197C270.079 79.222 269.769 79.9251 269.45 80.6485C269.121 81.3876 268.792 82.1259 268.453 82.8868C268.113 83.6551 267.772 84.4228 267.422 85.2144C265.097 90.4504 262.737 95.6661 260.328 100.857C258.862 104.018 257.406 107.183 255.951 110.348C255.574 111.169 255.574 111.169 255.189 112.006C254.578 113.336 253.966 114.666 253.355 115.996C252.265 116.003 252.265 116.003 251.153 116.01C244.26 116.053 237.367 116.107 230.475 116.173C226.932 116.206 223.39 116.236 219.847 116.257C216.419 116.276 212.99 116.306 209.563 116.344C208.265 116.357 206.966 116.365 205.667 116.37C178.971 116.477 154.437 125.839 133.948 144.51C133.364 145.042 133.364 145.042 132.768 145.584C123.232 154.407 115.824 165.088 109.767 176.968C109.146 178.187 108.506 179.394 107.866 180.601C102.353 191.643 98.7848 204.337 96.3746 216.592C96.2787 217.079 96.1827 217.568 96.0833 218.071C94.0893 229.311 93.6752 240.609 93.698 252.025C93.7 254.287 93.6842 256.547 93.6669 258.809C93.5585 295.123 103.338 332.127 126.745 358.734C127.405 359.485 128.061 360.241 128.714 361C142.625 377.15 161.071 388.021 180.883 392.878C181.482 393.026 182.08 393.173 182.697 393.324C190.363 395.098 197.985 395.257 205.796 395.298C206.905 395.307 208.015 395.315 209.124 395.324C212.741 395.352 216.359 395.37 219.977 395.388C220.594 395.391 221.21 395.394 221.846 395.397C227.669 395.424 233.492 395.448 239.315 395.463C246.746 395.484 254.177 395.523 261.608 395.583C266.845 395.626 272.082 395.647 277.319 395.654C280.443 395.659 283.567 395.673 286.691 395.708C289.626 395.74 292.56 395.749 295.495 395.737C296.571 395.738 297.646 395.747 298.722 395.766C304.331 396.066 304.331 396.066 309.413 393.998C310.482 392.672 311.257 391.427 312.022 389.877C312.484 389.141 312.946 388.405 313.421 387.646C313.857 386.882 314.292 386.116 314.74 385.328C317.629 380.328 320.655 375.435 323.712 370.555C324.171 369.822 324.628 369.089 325.1 368.334C325.746 367.303 325.746 367.303 326.406 366.253C326.793 365.636 327.18 365.019 327.579 364.384C328.587 362.864 328.587 362.864 329.968 361.363C331.653 361.183 331.653 361.183 333.799 361.193C335.002 361.193 335.002 361.193 336.228 361.194C337.096 361.201 337.965 361.209 338.86 361.217C339.746 361.219 340.633 361.221 341.546 361.223C343.905 361.229 346.262 361.244 348.62 361.261C351.025 361.276 353.431 361.282 355.837 361.29C360.558 361.306 365.279 361.332 370 361.363C368.968 365.099 367.519 368.405 365.872 371.848C365.596 372.433 365.319 373.018 365.033 373.621C364.118 375.555 363.198 377.487 362.278 379.419C361.302 381.478 360.326 383.537 359.351 385.597C358.668 387.038 357.986 388.478 357.302 389.918C354.795 395.205 352.307 400.502 349.827 405.805C349.118 407.319 348.41 408.833 347.701 410.348C346.674 412.54 345.649 414.733 344.625 416.927C334.17 439.335 334.17 439.335 332.038 441.652C330.384 441.732 328.75 441.763 327.094 441.762C326.571 441.765 326.047 441.768 325.507 441.77C323.737 441.779 321.968 441.782 320.198 441.785C318.934 441.789 317.67 441.794 316.405 441.8C312.232 441.815 308.058 441.823 303.885 441.83C302.444 441.833 301.003 441.837 299.561 441.84C292.769 441.854 285.977 441.865 279.186 441.871C271.39 441.878 263.594 441.898 255.798 441.929C249.752 441.951 243.706 441.962 237.66 441.965C234.061 441.966 230.462 441.973 226.864 441.992C200.228 442.126 173.974 440.608 149.133 428.896C148.666 428.679 148.199 428.461 147.718 428.238C140.157 424.673 133.199 420.368 126.356 415.389C125.868 415.037 125.38 414.685 124.878 414.321C118.307 409.542 112.278 404.45 106.635 398.429C105.71 397.446 104.771 396.48 103.83 395.517C99.4412 390.933 95.7479 385.923 92.0767 380.669C91.2263 379.472 90.3429 378.304 89.4566 377.139C64.3254 343.628 54.7363 296.514 55.0055 254.25C55.0083 253.361 55.0117 252.471 55.0145 251.555C55.0649 238.763 55.2933 226.171 57.335 213.543C57.4461 212.81 57.5572 212.076 57.6718 211.32C60.3367 194.137 65.4504 177.402 72.5196 161.768C72.7501 161.249 72.9813 160.73 73.2187 160.195C79.9255 145.25 88.8548 131.74 99.7829 120.123C101.177 118.608 102.459 117.087 103.708 115.434C105.947 112.528 108.488 110.153 111.171 107.742C111.525 107.42 111.877 107.098 112.242 106.766C140.99 80.6222 175.275 69.742 212.303 70.0046Z" fill="#FF2929"/>
<path d="M334.932 91.2148C339.071 94.9149 342.778 99.0776 343.742 104.99C344.386 112.845 344.111 119.503 339.556 125.839C337.385 128.529 335.295 130.99 332.617 133.081C329.788 136.204 330.093 139.818 330.037 144.005C330.045 145.082 330.054 146.159 330.063 147.236C330.06 148.354 330.056 149.474 330.051 150.592C330.045 152.938 330.054 155.282 330.073 157.627C330.097 160.603 330.084 163.578 330.059 166.554C330.044 168.868 330.048 171.181 330.059 173.494C330.061 174.589 330.059 175.685 330.048 176.78C330 183.778 330.954 189.239 333.734 195.505C335.297 199.051 336.306 202.753 337.35 206.512C337.75 207.919 338.149 209.326 338.549 210.734C338.728 211.381 338.908 212.028 339.093 212.695C339.504 214.119 339.979 215.521 340.471 216.914C341.575 221.381 339.793 224.866 337.796 228.684C335.052 234.115 332.658 239.66 330.348 245.324C329.235 248.049 328.11 250.77 326.986 253.489C326.764 254.027 326.542 254.566 326.313 255.12C324.394 259.753 322.404 264.346 320.379 268.925C318.001 274.306 315.679 279.708 313.426 285.154C307.014 300.657 300.389 316.055 293.747 331.444C293.413 332.219 293.413 332.219 293.072 333.01C292.471 334.402 291.87 335.793 291.269 337.185C289.171 342.054 287.093 346.935 285.011 351.812C272.644 351.848 260.277 351.874 247.91 351.891C242.167 351.898 236.423 351.909 230.68 351.926C225.671 351.941 220.662 351.951 215.653 351.954C213.004 351.956 210.355 351.961 207.705 351.972C205.205 351.982 202.704 351.985 200.204 351.983C198.863 351.983 197.522 351.992 196.182 352C178.397 351.955 162.46 346.39 149.671 332.659C146.02 328.595 143.057 324.405 140.603 319.355C140.201 318.538 139.799 317.721 139.385 316.879C136.847 311.462 135.033 305.899 133.477 300.061C133.31 299.437 133.142 298.815 132.97 298.172C130.625 288.899 130.021 279.609 130.03 270.025C130.028 268.94 130.025 267.856 130.021 266.772C130.017 264.514 130.017 262.256 130.02 259.999C130.023 257.716 130.019 255.434 130.006 253.151C129.862 226.71 132.14 202.328 149.715 182.263C163.03 168.275 178.765 162.971 196.896 163.01C197.643 163.009 198.389 163.008 199.159 163.008C200.737 163.008 202.315 163.009 203.892 163.012C206.243 163.016 208.595 163.012 210.946 163.007C258.592 162.99 258.592 162.99 271.208 175.756C277.017 182.967 279.506 191.71 281.556 200.851C281.681 201.393 281.806 201.934 281.936 202.492C282.369 205.453 282.346 208.359 282.339 211.353C282.34 211.996 282.34 212.638 282.341 213.3C282.342 214.654 282.34 216.009 282.338 217.362C282.333 219.436 282.337 221.51 282.342 223.583C282.341 224.9 282.34 226.217 282.339 227.535C282.34 228.155 282.342 228.775 282.343 229.414C282.333 231.91 282.284 233.942 281.556 236.327C269.571 237.055 257.627 237.172 245.627 237.081C245.613 236.446 245.6 235.81 245.585 235.156C245.531 232.777 245.471 230.398 245.408 228.02C245.382 226.994 245.357 225.968 245.335 224.943C245.303 223.461 245.263 221.978 245.222 220.497C245.2 219.607 245.178 218.718 245.156 217.801C244.881 214.541 244.472 211.417 242.784 208.642C240.794 207.118 238.754 207.316 236.408 207.327C235.636 207.318 235.636 207.318 234.848 207.308C233.143 207.29 231.437 207.289 229.732 207.29C228.544 207.285 227.355 207.279 226.166 207.272C223.67 207.263 221.174 207.261 218.678 207.266C215.494 207.27 212.311 207.248 209.128 207.217C206.67 207.197 204.211 207.195 201.753 207.198C200.58 207.196 199.408 207.189 198.235 207.176C191.702 207.109 186.279 207.269 180.678 211.418C180.051 211.838 179.424 212.259 178.777 212.692C171.233 221.162 169.877 231.745 169.898 242.999C169.893 244.218 169.886 245.436 169.88 246.655C169.87 249.197 169.87 251.739 169.877 254.281C169.885 257.515 169.861 260.748 169.83 263.982C169.809 266.495 169.808 269.009 169.812 271.522C169.812 272.714 169.805 273.905 169.791 275.096C169.694 284.408 171.371 292.308 177.396 299.336C183.597 305.233 190.884 307.648 198.988 307.548C199.604 307.549 200.22 307.551 200.854 307.552C202.863 307.555 204.873 307.54 206.883 307.526C208.289 307.524 209.697 307.522 211.104 307.522C214.041 307.518 216.977 307.508 219.915 307.491C223.677 307.469 227.439 307.461 231.201 307.458C234.101 307.455 237.002 307.447 239.902 307.438C241.29 307.434 242.677 307.43 244.065 307.428C246.001 307.423 247.937 307.412 249.873 307.4C250.444 307.399 251.016 307.398 251.604 307.398C254.289 307.376 256.844 307.343 259.446 306.524C260.428 305.381 260.428 305.381 261.063 303.82C261.347 303.211 261.632 302.602 261.925 301.974C262.232 301.28 262.541 300.586 262.858 299.872C263.198 299.13 263.54 298.388 263.891 297.624C264.699 295.864 265.502 294.101 266.299 292.335C267.958 288.665 269.652 285.014 271.343 281.361C277.628 267.763 283.819 254.137 289.615 240.28C291.404 236.013 293.238 231.772 295.089 227.538C295.513 226.567 295.513 226.567 295.945 225.577C297.071 223.002 298.197 220.426 299.328 217.853C300.666 214.81 301.986 211.761 303.282 208.695C304.529 205.762 305.876 202.909 307.27 200.056C313.645 186.511 314.589 174.937 314.272 160.06C314.238 157.803 314.259 155.549 314.28 153.292C314.295 151.094 314.279 148.896 314.253 146.698C314.244 145.662 314.243 144.626 314.251 143.589C314.368 137.711 314.368 137.711 311.979 132.692C310.367 131.278 310.367 131.278 308.682 130.2C304.414 127.312 301.531 122.249 300.212 117.067C299.369 109.258 300.247 103.194 304.357 96.6871C312.644 85.3447 323.634 84.5695 334.932 91.2148Z" fill="#FF2929"/>
<path d="M388.294 209C389.311 209.005 389.311 209.005 390.348 209.01C391.499 209.01 391.499 209.01 392.673 209.011C393.505 209.018 394.335 209.026 395.192 209.034C396.041 209.036 396.889 209.038 397.764 209.04C400.021 209.047 402.277 209.061 404.535 209.077C406.837 209.092 409.14 209.099 411.443 209.107C415.962 209.124 420.481 209.149 425 209.18C424.196 211.9 423.341 214.553 422.313 217.179C422.054 217.846 421.796 218.513 421.53 219.2C421.109 220.287 421.109 220.287 420.68 221.395C417.786 228.93 415.097 236.531 412.467 244.181C409.084 254.008 405.495 263.716 401.761 273.388C401.577 273.867 401.392 274.345 401.202 274.838C401.018 275.316 400.833 275.793 400.643 276.285C398.646 281.472 396.722 286.691 394.802 291.913C389.735 305.678 384.563 319.397 379.391 333.116C377.021 339.407 374.663 345.704 372.303 352C359.43 352 346.557 352 333.294 352C328.91 336.351 325.072 318.325 318 291.754C323.347 277.359 329.608 263.077 335.347 249.02C339.873 260.446 347.743 281.869 353.825 298.631C356.279 292.275 358.594 285.866 360.857 279.427C365.569 266.024 370.378 252.664 375.212 239.315C375.738 237.86 376.263 236.406 376.789 234.952C377.043 234.25 377.297 233.548 377.559 232.825C378.864 229.204 380.144 225.575 381.39 221.93C381.64 221.2 381.889 220.471 382.147 219.719C382.62 218.329 383.09 216.939 383.557 215.546C383.873 214.62 383.873 214.62 384.194 213.674C384.377 213.131 384.559 212.588 384.747 212.029C385.604 209.967 386.217 209.232 388.294 209Z" fill="#FF2929"/>
<path d="M430 154.521C429.7 160.715 428.056 165.882 424.146 170.453C422.918 171.638 422.918 171.638 421.796 172.54C417.937 175.794 415.894 179.499 413.7 184.166C407.563 197.222 403.005 198.169 390.913 197.981C392.161 192.833 393.797 187.93 395.629 183.008C396.688 180.154 397.643 177.291 398.495 174.353C397.983 174.166 397.472 173.978 396.946 173.785C392.51 171.551 388.974 166.14 387.209 161.179C377.552 125.346 428.9 112.008 430 154.521Z" fill="#FF2929"/>
<path d="M650.893 126.922C646.805 121.958 642.863 118.673 639.067 117.067C635.271 115.315 631.475 114.439 627.679 114.439C618.189 114.439 611.254 118.892 606.874 127.798C602.64 136.558 600.523 148.749 600.523 164.371C600.523 171.817 600.961 178.679 601.837 184.957C602.859 191.089 604.538 196.345 606.874 200.725C609.21 205.105 612.276 208.536 616.072 211.018C620.014 213.5 624.905 214.741 630.745 214.741C635.855 214.741 640.819 214.157 645.637 212.989C650.601 211.675 655.127 210.215 659.215 208.609L667.099 233.137C662.573 235.035 656.879 236.714 650.017 238.174C643.155 239.634 635.271 240.364 626.365 240.364C603.881 240.364 587.456 234.013 577.09 221.311C566.724 208.463 561.541 190.286 561.541 166.78C561.541 155.392 562.855 144.953 565.483 135.463C568.257 125.973 572.345 117.797 577.747 110.935C583.295 103.927 590.157 98.525 598.333 94.729C606.655 90.787 616.437 88.816 627.679 88.816C633.519 88.816 638.629 89.327 643.009 90.349C647.535 91.371 651.477 92.758 654.835 94.51C658.193 96.116 661.113 98.014 663.595 100.204C666.223 102.394 668.559 104.657 670.603 106.993L650.893 126.922ZM721.171 126.922C738.545 126.922 751.174 131.886 759.058 141.814C767.088 151.742 771.103 165.466 771.103 182.986C771.103 191.308 770.008 199.046 767.818 206.2C765.774 213.208 762.562 219.34 758.182 224.596C753.948 229.706 748.546 233.794 741.976 236.86C735.552 239.78 728.033 241.24 719.419 241.24C710.659 241.24 703.067 239.999 696.643 237.517C690.365 234.889 685.182 231.166 681.094 226.348C677.152 221.53 674.159 215.69 672.115 208.828C670.217 201.82 669.268 194.009 669.268 185.395C669.268 177.073 670.29 169.335 672.334 162.181C674.524 155.027 677.736 148.895 681.97 143.785C686.35 138.529 691.752 134.441 698.176 131.521C704.746 128.455 712.411 126.922 721.171 126.922ZM719.2 152.983C716.572 152.983 714.382 153.786 712.63 155.392C710.878 156.852 709.491 158.969 708.469 161.743C707.593 164.371 706.936 167.51 706.498 171.16C706.206 174.81 706.06 178.752 706.06 182.986C706.06 187.366 706.279 191.527 706.717 195.469C707.155 199.411 707.885 202.842 708.907 205.762C710.075 208.682 711.681 211.018 713.725 212.77C715.769 214.376 718.324 215.179 721.39 215.179C724.018 215.179 726.208 214.376 727.96 212.77C729.712 211.164 731.026 209.047 731.902 206.419C732.924 203.645 733.581 200.433 733.873 196.783C734.311 193.133 734.53 189.264 734.53 185.176C734.53 180.65 734.311 176.489 733.873 172.693C733.435 168.751 732.632 165.32 731.464 162.4C730.442 159.48 728.909 157.217 726.865 155.611C724.821 153.859 722.266 152.983 719.2 152.983ZM865.828 240.802L864.514 239.269C863.638 238.393 862.616 237.006 861.448 235.108C860.28 233.21 859.112 230.947 857.944 228.319C856.776 225.545 855.9 222.406 855.316 218.902C852.834 225.764 849.184 231.093 844.366 234.889C839.548 238.539 833.197 240.364 825.313 240.364C818.159 240.364 811.881 239.05 806.479 236.422C801.223 233.794 796.843 230.144 793.339 225.472C789.835 220.654 787.207 214.887 785.455 208.171C783.849 201.455 783.046 194.009 783.046 185.833C783.046 177.511 784.36 169.773 786.988 162.619C789.762 155.465 793.558 149.333 798.376 144.223C803.194 138.967 808.961 134.879 815.677 131.959C822.393 129.039 829.839 127.579 838.015 127.579C839.329 127.579 840.716 127.652 842.176 127.798C843.782 127.944 845.388 128.09 846.994 128.236V80.494L881.596 86.188V186.271C881.596 194.885 882.18 202.112 883.348 207.952C884.662 213.792 886.049 218.537 887.509 222.187C888.969 225.691 890.356 228.173 891.67 229.633L893.641 232.042L865.828 240.802ZM831.007 214.96C833.197 214.96 835.241 214.011 837.139 212.113C839.183 210.215 840.935 207.66 842.395 204.448C843.855 201.236 844.95 197.586 845.68 193.498C846.556 189.264 846.994 184.811 846.994 180.139V154.735C845.972 154.297 844.512 153.932 842.614 153.64C840.862 153.202 839.329 152.983 838.015 152.983C834.511 152.983 831.591 153.786 829.255 155.392C826.919 156.852 825.021 158.969 823.561 161.743C822.247 164.371 821.298 167.583 820.714 171.379C820.13 175.175 819.838 179.263 819.838 183.643C819.838 187.731 819.911 191.673 820.057 195.469C820.203 199.119 820.641 202.404 821.371 205.324C822.247 208.244 823.415 210.58 824.875 212.332C826.335 214.084 828.379 214.96 831.007 214.96ZM935.458 239.926C927.136 239.926 920.42 237.809 915.31 233.575C910.2 229.195 907.645 223.063 907.645 215.179V129.112H942.247V205.324C942.247 208.682 942.758 210.945 943.78 212.113C944.802 213.281 946.335 213.865 948.379 213.865C949.547 213.865 950.715 213.792 951.883 213.646C953.051 213.354 953.781 213.135 954.073 212.989L957.139 234.67C956.993 234.816 956.336 235.181 955.168 235.765C954 236.203 952.467 236.787 950.569 237.517C948.671 238.101 946.408 238.612 943.78 239.05C941.152 239.634 938.378 239.926 935.458 239.926ZM925.384 76.333C931.516 76.333 936.188 78.158 939.4 81.808C942.612 85.458 944.218 90.057 944.218 95.605C944.218 101.299 942.539 106.044 939.181 109.84C935.969 113.636 931.078 115.534 924.508 115.534C918.376 115.534 913.631 113.709 910.273 110.059C907.061 106.263 905.455 101.81 905.455 96.7C905.455 90.86 907.134 86.042 910.492 82.246C913.85 78.304 918.814 76.333 925.384 76.333ZM1034.48 239.05V170.722C1034.48 165.612 1033.82 161.524 1032.51 158.458C1031.34 155.246 1029.08 153.64 1025.72 153.64C1021.63 153.64 1017.84 156.341 1014.33 161.743C1010.83 166.999 1009.08 174.445 1009.08 184.081V239.05H974.474V182.11C974.474 173.35 973.817 166.123 972.503 160.429C971.335 154.589 969.948 149.844 968.342 146.194C966.59 142.106 964.619 138.821 962.429 136.339L990.242 127.579C991.556 129.039 992.87 130.718 994.184 132.616C995.352 134.222 996.447 136.339 997.469 138.967C998.637 141.449 999.586 144.296 1000.32 147.508C1004.11 140.646 1009.3 135.609 1015.87 132.397C1022.58 129.185 1029.88 127.579 1037.77 127.579C1049.15 127.579 1057.26 131.083 1062.07 138.091C1066.89 144.953 1069.3 154.151 1069.3 165.685V239.05H1034.48ZM1110.18 250.219C1116.6 252.409 1122.15 254.088 1126.82 255.256C1131.64 256.57 1136.75 257.227 1142.15 257.227C1147.99 257.227 1152.66 255.548 1156.17 252.19C1159.82 248.832 1161.64 244.014 1161.64 237.736C1161.64 231.02 1160.62 225.034 1158.57 219.778C1156.09 226.348 1152.44 231.458 1147.62 235.108C1142.81 238.612 1136.53 240.364 1128.79 240.364C1121.64 240.364 1115.36 239.05 1109.96 236.422C1104.7 233.794 1100.32 230.144 1096.82 225.472C1093.31 220.654 1090.68 214.887 1088.93 208.171C1087.33 201.455 1086.52 194.009 1086.52 185.833C1086.52 177.511 1087.84 169.773 1090.47 162.619C1093.24 155.465 1097.04 149.333 1101.85 144.223C1106.67 138.967 1112.44 134.879 1119.15 131.959C1125.87 129.039 1133.32 127.579 1141.49 127.579C1145.87 127.579 1150.4 127.871 1155.07 128.455C1159.89 129.039 1164.34 129.696 1168.43 130.426C1172.66 131.156 1176.31 131.886 1179.38 132.616C1182.59 133.2 1184.71 133.638 1185.73 133.93L1184.85 188.461C1184.85 193.133 1185.22 197.513 1185.95 201.601C1186.83 205.543 1187.7 209.485 1188.58 213.427C1189.6 217.223 1190.55 221.165 1191.42 225.253C1192.3 229.341 1192.74 233.721 1192.74 238.393C1192.74 253.723 1188.36 265.476 1179.6 273.652C1170.98 281.974 1159.23 286.135 1144.34 286.135C1137.62 286.135 1130.62 285.332 1123.32 283.726C1116.02 282.12 1108.93 279.857 1102.07 276.937L1110.18 250.219ZM1134.48 214.96C1136.82 214.96 1138.94 214.011 1140.84 212.113C1142.73 210.069 1144.41 207.368 1145.87 204.01C1147.33 200.652 1148.43 196.783 1149.16 192.403C1150.03 188.023 1150.47 183.424 1150.47 178.606V154.735C1149.45 154.297 1147.99 153.932 1146.09 153.64C1144.34 153.202 1142.81 152.983 1141.49 152.983C1137.99 152.983 1135.07 153.786 1132.73 155.392C1130.4 156.852 1128.5 158.969 1127.04 161.743C1125.72 164.371 1124.78 167.583 1124.19 171.379C1123.61 175.175 1123.32 179.263 1123.32 183.643C1123.32 187.731 1123.39 191.673 1123.53 195.469C1123.68 199.119 1124.12 202.404 1124.85 205.324C1125.72 208.244 1126.89 210.58 1128.35 212.332C1129.81 214.084 1131.86 214.96 1134.48 214.96ZM1331.79 88.816C1343.33 88.816 1353.25 90.568 1361.58 94.072C1369.9 97.576 1376.76 102.54 1382.16 108.964C1387.56 115.388 1391.51 123.272 1393.99 132.616C1396.62 141.814 1397.93 152.18 1397.93 163.714C1397.93 175.102 1396.47 185.541 1393.55 195.031C1390.78 204.375 1386.54 212.405 1380.85 219.121C1375.15 225.837 1368 231.093 1359.39 234.889C1350.77 238.539 1340.62 240.364 1328.94 240.364C1317.41 240.364 1307.41 238.758 1298.94 235.546C1290.62 232.188 1283.76 227.37 1278.36 221.092C1272.95 214.668 1268.94 206.93 1266.31 197.878C1263.83 188.826 1262.59 178.46 1262.59 166.78C1262.59 155.392 1263.97 144.953 1266.75 135.463C1269.67 125.827 1273.98 117.578 1279.67 110.716C1285.36 103.708 1292.52 98.306 1301.13 94.51C1309.89 90.714 1320.11 88.816 1331.79 88.816ZM1328.73 114.439C1319.24 114.439 1312.3 118.892 1307.92 127.798C1303.69 136.558 1301.57 148.749 1301.57 164.371C1301.57 171.817 1302.01 178.606 1302.88 184.738C1303.91 190.87 1305.51 196.199 1307.7 200.725C1310.04 205.105 1313.18 208.536 1317.12 211.018C1321.06 213.5 1326.02 214.741 1332.01 214.741C1341.5 214.741 1348.36 210.507 1352.6 202.039C1356.83 193.571 1358.95 181.526 1358.95 165.904C1358.95 158.458 1358.44 151.596 1357.41 145.318C1356.54 139.04 1354.93 133.638 1352.6 129.112C1350.41 124.44 1347.34 120.863 1343.4 118.381C1339.46 115.753 1334.57 114.439 1328.73 114.439ZM1477.72 112.249C1476.99 111.081 1475.75 109.913 1474 108.745C1472.4 107.431 1470.5 106.774 1468.31 106.774C1464.95 106.774 1462.1 107.942 1459.77 110.278C1457.43 112.468 1456.26 115.68 1456.26 119.914C1456.26 123.272 1456.55 126.338 1457.14 129.112H1485.17L1480.79 155.392H1461.3V235.327C1461.3 243.649 1459.99 250.657 1457.36 256.351C1454.88 262.045 1451.66 266.863 1447.72 270.805C1443.78 274.747 1439.33 278.032 1434.36 280.66C1429.54 283.288 1424.87 285.697 1420.35 287.887L1404.58 262.264C1411.59 258.614 1416.99 254.672 1420.78 250.438C1424.73 246.35 1426.7 241.532 1426.7 235.984V155.392H1409.83V129.112H1426.7C1425.82 126.922 1425.09 124.659 1424.51 122.323C1424.07 119.987 1423.85 117.505 1423.85 114.877C1423.85 109.475 1424.8 104.73 1426.7 100.642C1428.6 96.408 1431.3 92.831 1434.8 89.911C1438.3 86.991 1442.39 84.801 1447.06 83.341C1451.88 81.735 1457.14 80.932 1462.83 80.932C1470.86 80.932 1477.21 82.246 1481.89 84.874C1486.7 87.502 1490.86 90.787 1494.37 94.729L1477.72 112.249Z" fill="#273E6B"/>
<path d="M1651.18 171.379C1650.16 168.167 1649.21 164.882 1648.33 161.524C1647.6 158.166 1646.87 154.954 1646.14 151.888C1645.56 148.822 1644.97 146.048 1644.39 143.566C1643.95 141.084 1643.51 139.113 1643.07 137.653C1642.78 139.113 1642.34 141.23 1641.76 144.004C1641.18 146.778 1640.52 149.771 1639.79 152.983C1639.21 156.195 1638.55 159.48 1637.82 162.838C1637.09 166.196 1636.29 169.262 1635.41 172.036L1614.6 239.05H1585.48L1544.31 90.787H1580.22L1594.24 146.413C1595.11 149.771 1595.92 153.275 1596.65 156.925C1597.38 160.575 1598.11 164.298 1598.84 168.094C1599.57 171.744 1600.22 175.321 1600.81 178.825C1601.39 182.183 1601.9 185.176 1602.34 187.804C1603.51 182.402 1604.9 175.905 1606.5 168.313C1608.25 160.575 1610.15 153.348 1612.2 146.632L1628.84 90.787H1658.19L1675.27 147.07C1677.75 155.1 1679.65 162.765 1680.96 170.065C1682.42 177.219 1683.74 183.424 1684.9 188.68C1685.63 183.424 1686.58 177.219 1687.75 170.065C1688.92 162.911 1690.52 155.173 1692.57 146.851L1706.37 90.787H1742.72L1701.55 239.05H1672.42L1651.18 171.379ZM1793.93 126.922C1811.3 126.922 1823.93 131.886 1831.82 141.814C1839.85 151.742 1843.86 165.466 1843.86 182.986C1843.86 191.308 1842.77 199.046 1840.58 206.2C1838.53 213.208 1835.32 219.34 1830.94 224.596C1826.71 229.706 1821.3 233.794 1814.73 236.86C1808.31 239.78 1800.79 241.24 1792.18 241.24C1783.42 241.24 1775.83 239.999 1769.4 237.517C1763.12 234.889 1757.94 231.166 1753.85 226.348C1749.91 221.53 1746.92 215.69 1744.87 208.828C1742.98 201.82 1742.03 194.009 1742.03 185.395C1742.03 177.073 1743.05 169.335 1745.09 162.181C1747.28 155.027 1750.49 148.895 1754.73 143.785C1759.11 138.529 1764.51 134.441 1770.93 131.521C1777.5 128.455 1785.17 126.922 1793.93 126.922ZM1791.96 152.983C1789.33 152.983 1787.14 153.786 1785.39 155.392C1783.64 156.852 1782.25 158.969 1781.23 161.743C1780.35 164.371 1779.69 167.51 1779.26 171.16C1778.96 174.81 1778.82 178.752 1778.82 182.986C1778.82 187.366 1779.04 191.527 1779.48 195.469C1779.91 199.411 1780.64 202.842 1781.67 205.762C1782.83 208.682 1784.44 211.018 1786.48 212.77C1788.53 214.376 1791.08 215.179 1794.15 215.179C1796.78 215.179 1798.97 214.376 1800.72 212.77C1802.47 211.164 1803.78 209.047 1804.66 206.419C1805.68 203.645 1806.34 200.433 1806.63 196.783C1807.07 193.133 1807.29 189.264 1807.29 185.176C1807.29 180.65 1807.07 176.489 1806.63 172.693C1806.19 168.751 1805.39 165.32 1804.22 162.4C1803.2 159.48 1801.67 157.217 1799.62 155.611C1797.58 153.859 1795.02 152.983 1791.96 152.983ZM1917.12 160.648C1915.52 160.648 1913.77 161.086 1911.87 161.962C1909.97 162.838 1908.14 164.225 1906.39 166.123C1904.64 167.875 1903.18 170.211 1902.01 173.131C1900.84 175.905 1900.26 179.263 1900.26 183.205V239.05H1865.66V182.11C1865.66 173.35 1865 166.123 1863.69 160.429C1862.52 154.589 1861.13 149.844 1859.53 146.194C1857.77 142.106 1855.8 138.821 1853.61 136.339L1881.43 127.579C1882.59 129.039 1883.84 130.718 1885.15 132.616C1886.17 134.222 1887.27 136.266 1888.43 138.748C1889.6 141.23 1890.55 144.077 1891.28 147.289C1894.93 140.281 1899.24 135.244 1904.2 132.178C1909.31 129.112 1915.3 127.579 1922.16 127.579C1925.23 127.579 1927.93 127.871 1930.26 128.455C1932.75 128.893 1934.79 129.404 1936.4 129.988L1927.42 163.057C1926.39 162.473 1925.01 161.962 1923.26 161.524C1921.65 160.94 1919.61 160.648 1917.12 160.648ZM1977.44 239.926C1972.33 239.926 1967.95 239.196 1964.3 237.736C1960.8 236.276 1957.81 234.305 1955.33 231.823C1952.99 229.195 1951.24 226.202 1950.07 222.844C1949.05 219.486 1948.54 215.836 1948.54 211.894V86.188L1983.14 80.275V204.448C1983.14 207.952 1983.72 210.434 1984.89 211.894C1986.2 213.208 1988.54 213.865 1991.9 213.865C1993.5 213.865 1995.26 213.719 1997.15 213.427C1999.2 213.135 2001.02 212.843 2002.63 212.551L2005.91 234.232C2003.72 235.254 2000 236.495 1994.75 237.955C1989.64 239.269 1983.87 239.926 1977.44 239.926ZM2093 240.802L2091.68 239.269C2090.81 238.393 2089.79 237.006 2088.62 235.108C2087.45 233.21 2086.28 230.947 2085.11 228.319C2083.95 225.545 2083.07 222.406 2082.49 218.902C2080 225.764 2076.35 231.093 2071.54 234.889C2066.72 238.539 2060.37 240.364 2052.48 240.364C2045.33 240.364 2039.05 239.05 2033.65 236.422C2028.39 233.794 2024.01 230.144 2020.51 225.472C2017 220.654 2014.38 214.887 2012.62 208.171C2011.02 201.455 2010.22 194.009 2010.22 185.833C2010.22 177.511 2011.53 169.773 2014.16 162.619C2016.93 155.465 2020.73 149.333 2025.55 144.223C2030.36 138.967 2036.13 134.879 2042.85 131.959C2049.56 129.039 2057.01 127.579 2065.18 127.579C2066.5 127.579 2067.89 127.652 2069.35 127.798C2070.95 127.944 2072.56 128.09 2074.16 128.236V80.494L2108.77 86.188V186.271C2108.77 194.885 2109.35 202.112 2110.52 207.952C2111.83 213.792 2113.22 218.537 2114.68 222.187C2116.14 225.691 2117.53 228.173 2118.84 229.633L2120.81 232.042L2093 240.802ZM2058.18 214.96C2060.37 214.96 2062.41 214.011 2064.31 212.113C2066.35 210.215 2068.1 207.66 2069.56 204.448C2071.02 201.236 2072.12 197.586 2072.85 193.498C2073.73 189.264 2074.16 184.811 2074.16 180.139V154.735C2073.14 154.297 2071.68 153.932 2069.78 153.64C2068.03 153.202 2066.5 152.983 2065.18 152.983C2061.68 152.983 2058.76 153.786 2056.42 155.392C2054.09 156.852 2052.19 158.969 2050.73 161.743C2049.42 164.371 2048.47 167.583 2047.88 171.379C2047.3 175.175 2047.01 179.263 2047.01 183.643C2047.01 187.731 2047.08 191.673 2047.23 195.469C2047.37 199.119 2047.81 202.404 2048.54 205.324C2049.42 208.244 2050.58 210.58 2052.04 212.332C2053.5 214.084 2055.55 214.96 2058.18 214.96Z" fill="#FF2929"/>
<path d="M651.948 369.812C652.364 370.852 651.948 371.892 650.7 372.932C649.452 373.868 647.476 374.492 644.772 374.804C640.092 375.428 635.308 376.104 630.42 376.832C625.532 377.456 620.54 378.132 615.444 378.86C615.236 384.164 615.236 389.468 615.444 394.772C617.836 394.772 620.696 394.564 624.024 394.148C627.456 393.628 630.94 393.004 634.476 392.276C638.012 391.548 641.392 390.82 644.616 390.092C647.944 389.26 650.752 388.584 653.04 388.064C654.184 387.752 655.38 387.544 656.628 387.44C657.876 387.232 658.968 387.232 659.904 387.44C660.944 387.544 661.776 387.908 662.4 388.532C663.024 389.156 663.336 390.04 663.336 391.184C663.336 391.496 662.972 391.964 662.244 392.588C661.516 393.212 660.58 393.888 659.436 394.616C658.396 395.24 657.252 395.864 656.004 396.488C654.86 397.008 653.82 397.424 652.884 397.736C646.436 399.816 640.092 401.636 633.852 403.196C627.612 404.652 621.528 405.432 615.6 405.536C612.168 405.64 609.568 404.756 607.8 402.884C606.032 400.908 605.096 398.1 604.992 394.46C604.784 389.364 604.784 384.216 604.992 379.016C603.224 377.976 602.34 376.52 602.34 374.648C602.548 372.672 603.484 371.32 605.148 370.592C605.356 367.576 605.512 364.56 605.616 361.544C605.72 358.424 605.876 355.356 606.084 352.34C604.94 352.132 603.9 351.56 602.964 350.624C602.132 349.688 601.716 348.648 601.716 347.504C601.716 346.568 601.924 345.736 602.34 345.008C602.756 344.176 603.536 343.552 604.68 343.136C606.552 342.72 608.84 342.252 611.544 341.732C614.248 341.212 617.004 340.744 619.812 340.328C622.724 339.912 625.48 339.548 628.08 339.236C630.784 338.924 633.072 338.716 634.944 338.612C637.128 338.404 639.208 338.612 641.184 339.236C643.264 339.86 645.188 341.056 646.956 342.824C647.372 344.28 647.06 345.372 646.02 346.1C645.084 346.828 643.836 347.296 642.276 347.504C640.716 347.712 638.844 347.972 636.66 348.284C634.476 348.492 632.188 348.752 629.796 349.064C627.508 349.376 625.168 349.688 622.776 350C620.488 350.208 618.304 350.468 616.224 350.78C616.224 350.988 616.224 351.248 616.224 351.56C616.328 351.768 616.38 351.976 616.38 352.184C616.172 354.888 616.016 357.592 615.912 360.296C615.808 363 615.704 365.704 615.6 368.408C619.968 367.68 624.44 367.056 629.016 366.536C633.592 365.912 637.232 365.496 639.936 365.288C642.12 365.08 644.252 365.34 646.332 366.068C648.412 366.796 650.284 368.044 651.948 369.812ZM679.74 358.112C679.844 359.776 680 361.856 680.208 364.352C680.52 366.744 680.832 369.292 681.144 371.996C681.456 374.596 681.768 377.196 682.08 379.796C682.496 382.396 682.86 384.788 683.172 386.972C684.316 384.684 685.72 381.876 687.384 378.548C689.048 375.22 690.764 372.048 692.532 369.032C694.404 365.912 696.276 363.312 698.148 361.232C700.124 359.048 701.892 357.956 703.452 357.956C705.116 357.956 706.624 358.788 707.976 360.452C709.432 362.012 710.68 363.936 711.72 366.224C712.76 368.512 713.644 370.956 714.372 373.556C715.204 376.156 715.88 378.444 716.4 380.42C716.816 379.068 717.336 377.56 717.96 375.896C718.688 374.128 719.416 372.36 720.144 370.592C720.976 368.72 721.86 366.9 722.796 365.132C723.836 363.364 724.928 361.804 726.072 360.452C727.424 358.996 728.88 357.956 730.44 357.332C732 356.604 733.144 356.24 733.872 356.24C734.808 356.24 735.9 356.552 737.148 357.176C738.5 357.696 739.852 358.424 741.204 359.36C742.556 360.296 743.804 361.44 744.948 362.792C746.196 364.04 747.184 365.34 747.912 366.692C749.368 369.5 750.512 372.568 751.344 375.896C752.28 379.224 752.956 382.396 753.372 385.412C753.788 388.428 754.048 391.132 754.152 393.524C754.36 395.812 754.516 397.424 754.62 398.36C754.62 399.712 754.464 400.752 754.152 401.48C753.84 402.104 753.268 402.624 752.436 403.04C751.292 403.56 750.304 403.768 749.472 403.664C748.64 403.456 747.964 403.092 747.444 402.572C746.924 402.052 746.508 401.48 746.196 400.856C745.884 400.128 745.676 399.504 745.572 398.984C745.26 396.592 744.896 394.148 744.48 391.652C744.168 389.156 743.804 386.764 743.388 384.476C742.972 382.084 742.452 379.9 741.828 377.924C741.308 375.844 740.736 374.024 740.112 372.464C739.904 372.048 739.54 371.528 739.02 370.904C738.604 370.176 738.084 369.5 737.46 368.876C736.94 368.252 736.42 367.732 735.9 367.316C735.38 366.9 735.016 366.64 734.808 366.536C733.768 366.536 732.676 367.524 731.532 369.5C730.388 371.372 729.296 373.66 728.256 376.364C727.216 379.068 726.228 381.928 725.292 384.944C724.46 387.856 723.836 390.352 723.42 392.432C723.42 395.136 722.9 397.164 721.86 398.516C720.82 399.764 719.728 400.388 718.584 400.388C717.44 400.388 716.192 399.972 714.84 399.14C713.592 398.204 712.76 397.164 712.344 396.02C711.72 394.356 711.044 392.484 710.316 390.404C709.588 388.324 708.808 386.192 707.976 384.008C707.248 381.824 706.468 379.692 705.636 377.612C704.908 375.532 704.18 373.66 703.452 371.996C701.996 373.972 700.54 376.156 699.084 378.548C697.732 380.94 696.38 383.384 695.028 385.88C693.78 388.376 692.532 390.872 691.284 393.368C690.14 395.76 689.048 397.892 688.008 399.764C687.28 400.908 686.5 401.948 685.668 402.884C684.836 403.716 683.848 404.132 682.704 404.132C681.872 404.132 680.988 403.768 680.052 403.04C679.116 402.208 678.232 401.22 677.4 400.076C676.568 398.932 675.788 397.632 675.06 396.176C674.436 394.72 673.968 393.264 673.656 391.808C672.824 387.336 672.096 382.448 671.472 377.144C670.952 371.736 670.432 366.484 669.912 361.388C669.808 359.62 670.016 358.008 670.536 356.552C671.16 354.992 672.304 353.952 673.968 353.432C675.736 353.12 677.088 353.38 678.024 354.212C678.96 355.044 679.532 356.344 679.74 358.112ZM793.791 425.504C793.687 426.648 793.167 427.688 792.231 428.624C791.295 429.664 790.255 430.132 789.111 430.028C787.343 429.924 785.991 429.248 785.055 428C784.119 426.752 783.651 425.712 783.651 424.88C783.651 420.928 783.547 416.82 783.339 412.556C783.131 408.188 782.871 403.716 782.559 399.14C781.207 399.348 779.959 399.244 778.815 398.828C777.775 398.308 777.047 397.528 776.631 396.488C775.903 394.72 776.007 393.16 776.943 391.808C777.879 390.456 779.387 389.156 781.467 387.908C780.947 384.06 780.427 380.264 779.907 376.52C779.491 372.776 779.023 369.136 778.503 365.6C778.399 364.976 778.451 364.404 778.659 363.884C778.867 363.364 779.127 362.896 779.439 362.48C779.751 361.96 780.323 361.492 781.155 361.076C782.507 360.556 784.015 360.972 785.679 362.324C787.447 363.676 788.643 365.392 789.267 367.472C789.579 369.448 789.891 371.736 790.203 374.336C790.619 376.832 790.983 379.588 791.295 382.604C793.479 381.252 795.507 379.796 797.379 378.236C799.355 376.676 801.019 375.012 802.371 373.244C803.827 371.476 804.919 369.656 805.647 367.784C806.375 365.808 806.583 363.78 806.271 361.7C806.063 359.932 805.283 358.372 803.931 357.02C802.579 355.564 800.447 354.784 797.535 354.68C794.935 354.576 792.335 354.784 789.735 355.304C787.239 355.824 784.743 356.5 782.247 357.332C779.855 358.164 777.463 359.152 775.071 360.296C772.783 361.44 770.547 362.584 768.363 363.728C766.907 364.56 765.451 364.924 763.995 364.82C762.643 364.612 761.759 364.092 761.343 363.26C760.407 361.18 760.459 359.308 761.499 357.644C762.643 355.98 764.359 354.42 766.647 352.964C768.623 351.82 770.963 350.676 773.667 349.532C776.475 348.284 779.387 347.244 782.403 346.412C785.523 345.476 788.643 344.852 791.763 344.54C794.987 344.124 798.055 344.176 800.967 344.696C803.879 345.112 806.479 346.1 808.767 347.66C811.159 349.116 813.083 351.3 814.539 354.212C816.307 358.996 816.775 363.416 815.943 367.472C815.215 371.424 813.655 375.064 811.263 378.392C808.975 381.616 806.115 384.58 802.683 387.284C799.355 389.884 795.975 392.224 792.543 394.304C793.063 399.92 793.427 405.484 793.635 410.996C793.843 416.508 793.895 421.344 793.791 425.504ZM862.717 354.056C865.837 355.2 868.437 356.916 870.517 359.204C872.701 361.492 874.365 364.092 875.509 367.004C876.653 369.812 877.277 372.724 877.381 375.74C877.589 378.756 877.277 381.564 876.445 384.164C875.301 387.076 873.845 389.936 872.077 392.744C870.309 395.552 868.281 398.048 865.993 400.232C863.705 402.416 861.105 404.184 858.193 405.536C855.281 406.888 852.057 407.564 848.521 407.564C844.257 407.564 840.669 406.576 837.757 404.6C834.845 402.624 832.557 400.076 830.893 396.956C829.229 393.836 828.137 390.3 827.617 386.348C827.201 382.396 827.305 378.444 827.929 374.492C828.345 371.58 829.021 368.772 829.957 366.068C830.997 363.26 832.297 360.816 833.857 358.736C835.417 356.552 837.185 354.784 839.161 353.432C841.241 352.08 843.581 351.404 846.181 351.404C847.637 351.404 849.457 351.716 851.641 352.34C853.825 352.86 855.853 353.64 857.725 354.68C859.077 353.432 860.741 353.224 862.717 354.056ZM856.789 365.444C855.645 364.716 854.293 363.78 852.733 362.636C851.277 361.388 849.977 360.764 848.833 360.764C847.585 360.764 846.337 361.336 845.089 362.48C843.945 363.624 842.905 364.976 841.969 366.536C841.137 367.992 840.409 369.5 839.785 371.06C839.161 372.62 838.745 373.868 838.537 374.804C838.225 376.364 838.017 378.236 837.913 380.42C837.809 382.604 837.965 384.788 838.381 386.972C838.797 389.052 839.577 390.976 840.721 392.744C841.969 394.408 843.789 395.604 846.181 396.332C847.637 396.748 849.353 396.748 851.329 396.332C853.305 395.812 855.229 394.928 857.101 393.68C859.077 392.432 860.897 390.768 862.561 388.688C864.329 386.608 865.681 384.216 866.617 381.512C867.657 378.496 867.657 375.376 866.617 372.152C865.681 368.824 863.705 366.432 860.689 364.976C859.961 365.496 859.233 365.756 858.505 365.756C857.777 365.756 857.205 365.652 856.789 365.444ZM945.444 404.912C944.612 406.056 943.676 406.836 942.636 407.252C941.596 407.564 940.66 407.72 939.828 407.72C938.372 407.616 937.02 407.148 935.772 406.316C934.524 405.38 933.744 404.444 933.432 403.508C932.808 401.74 932.132 399.764 931.404 397.58C930.676 395.396 929.948 393.212 929.22 391.028C928.596 388.74 927.92 386.556 927.192 384.476C926.464 382.292 925.788 380.316 925.164 378.548C923.084 382.188 921.108 385.88 919.236 389.624C917.364 393.264 915.284 397.06 912.996 401.012C911.956 402.572 910.76 403.664 909.408 404.288C908.056 404.808 906.912 405.016 905.976 404.912C904.624 404.808 903.376 404.288 902.232 403.352C901.192 402.416 900.36 401.532 899.736 400.7C898.592 398.828 897.448 396.436 896.304 393.524C895.16 390.508 894.068 387.388 893.028 384.164C892.092 380.836 891.208 377.56 890.376 374.336C889.544 371.008 888.868 368.044 888.348 365.444C888.036 363.676 888.036 362.012 888.348 360.452C888.764 358.892 889.7 358.008 891.156 357.8C892.924 357.696 894.536 358.32 895.992 359.672C897.448 360.92 898.28 362.168 898.488 363.416C898.904 365.496 899.372 367.784 899.892 370.28C900.516 372.672 901.14 375.116 901.764 377.612C902.492 380.108 903.168 382.552 903.792 384.944C904.52 387.336 905.248 389.468 905.976 391.34C907.536 388.844 909.252 385.984 911.124 382.76C913.1 379.432 914.972 376.26 916.74 373.244C918.508 370.124 920.12 367.42 921.576 365.132C923.032 362.844 924.176 361.44 925.008 360.92C925.632 360.504 926.516 360.556 927.66 361.076C928.804 361.492 929.636 362.116 930.156 362.948C932.444 367.524 934.316 372.568 935.772 378.08C937.332 383.488 938.84 388.532 940.296 393.212C941.752 391.34 943.312 388.896 944.976 385.88C946.64 382.76 948.252 379.484 949.812 376.052C951.372 372.62 952.828 369.188 954.18 365.756C955.532 362.324 956.624 359.256 957.456 356.552C958.288 353.744 959.432 352.392 960.888 352.496C962.76 352.704 964.372 353.328 965.724 354.368C967.076 355.408 967.596 356.5 967.284 357.644C964.996 366.796 962.032 375.22 958.392 382.916C954.752 390.508 950.436 397.84 945.444 404.912ZM1016.32 371.84C1012.27 374.232 1007.9 376.104 1003.22 377.456C998.54 378.704 993.496 379.328 988.088 379.328C988.296 382.968 989.336 385.88 991.208 388.064C993.08 390.144 995.42 391.392 998.228 391.808C999.892 392.016 1001.56 391.964 1003.22 391.652C1004.99 391.34 1006.6 390.872 1008.06 390.248C1009.62 389.52 1011.02 388.74 1012.27 387.908C1013.52 387.076 1014.61 386.244 1015.54 385.412C1016.48 384.58 1017.47 384.06 1018.51 383.852C1019.55 383.54 1020.33 383.488 1020.85 383.696C1022.3 384.216 1022.82 385.776 1022.41 388.376C1020.74 391.704 1018.35 394.564 1015.23 396.956C1012.11 399.244 1008.63 400.7 1004.78 401.324C1001.45 401.948 998.02 401.792 994.484 400.856C990.948 399.92 987.776 398.1 984.968 395.396C982.576 393.004 980.756 390.196 979.508 386.972C978.26 383.748 977.48 380.42 977.168 376.988C976.856 373.764 977.116 370.696 977.948 367.784C978.884 364.872 980.288 362.324 982.16 360.14C984.032 357.852 986.372 355.98 989.18 354.524C991.988 353.068 995.264 352.236 999.008 352.028C1003.48 351.716 1007.54 352.548 1011.18 354.524C1014.82 356.5 1017.36 359.256 1018.82 362.792C1019.65 364.768 1019.86 366.484 1019.44 367.94C1019.13 369.396 1018.09 370.696 1016.32 371.84ZM998.384 361.232C997.344 361.44 996.2 361.804 994.952 362.324C993.808 362.844 992.716 363.52 991.676 364.352C990.74 365.08 989.856 365.964 989.024 367.004C988.296 367.94 987.88 369.032 987.776 370.28C989.544 370.28 991.468 370.124 993.548 369.812C995.732 369.5 997.812 369.136 999.788 368.72C1001.87 368.2 1003.74 367.628 1005.4 367.004C1007.17 366.38 1008.63 365.704 1009.77 364.976C1008.94 363 1007.38 361.804 1005.09 361.388C1002.91 360.868 1000.67 360.816 998.384 361.232ZM1079.91 354.68C1078.04 355.72 1076.06 356.812 1073.98 357.956C1072 359.1 1069.98 360.452 1067.9 362.012C1065.92 363.468 1064 365.236 1062.12 367.316C1060.36 369.292 1058.74 371.684 1057.29 374.492C1055.21 378.444 1053.8 382.5 1053.08 386.66C1052.35 390.716 1051.88 394.72 1051.67 398.672C1051.67 400.544 1051.2 402.468 1050.27 404.444C1049.44 406.316 1048.24 407.252 1046.68 407.252C1044.7 407.252 1043.09 406.264 1041.84 404.288C1040.7 402.208 1039.92 400.232 1039.5 398.36C1037.74 390.976 1036.28 383.696 1035.14 376.52C1033.99 369.24 1033 362.012 1032.17 354.836C1032.17 353.38 1032.59 352.444 1033.42 352.028C1034.36 351.612 1035.4 351.456 1036.54 351.56C1037.79 351.664 1038.98 351.976 1040.13 352.496C1041.27 353.016 1041.95 353.848 1042.16 354.992C1042.57 358.84 1043.09 362.896 1043.72 367.16C1044.34 371.32 1044.96 374.908 1045.59 377.924C1046 374.388 1047.15 370.956 1049.02 367.628C1050.89 364.3 1053.18 361.284 1055.88 358.58C1058.69 355.876 1061.81 353.588 1065.24 351.716C1068.78 349.844 1072.37 348.596 1076.01 347.972C1077.57 347.764 1078.87 347.764 1079.91 347.972C1080.95 348.18 1081.68 348.544 1082.09 349.064C1082.51 349.584 1082.56 350.416 1082.25 351.56C1082.04 352.704 1081.26 353.744 1079.91 354.68ZM1115.53 344.852C1115.33 345.892 1114.6 346.464 1113.35 346.568C1112.1 346.672 1111.06 346.724 1110.23 346.724C1107.63 346.828 1104.93 347.088 1102.12 347.504C1099.41 347.92 1096.55 348.544 1093.54 349.376C1092.29 349.792 1090.94 349.636 1089.48 348.908C1088.03 348.18 1087.14 346.724 1086.83 344.54C1086.83 343.708 1087.14 343.032 1087.77 342.512C1088.39 341.992 1089.12 341.524 1089.95 341.108C1091.3 340.484 1092.91 339.964 1094.79 339.548C1096.66 339.028 1098.53 338.664 1100.4 338.456C1102.38 338.248 1104.25 338.196 1106.02 338.3C1107.79 338.3 1109.24 338.456 1110.39 338.768C1112.05 339.288 1113.35 340.068 1114.29 341.108C1115.33 342.148 1115.74 343.396 1115.53 344.852ZM1111.95 396.8C1112.67 398.464 1113.04 400.284 1113.04 402.26C1113.14 404.132 1112.62 405.432 1111.48 406.16C1110.02 407.096 1108.46 407.044 1106.8 406.004C1105.13 404.964 1103.89 403.56 1103.05 401.792C1101.91 399.608 1101.03 396.956 1100.4 393.836C1099.78 390.612 1099.31 387.44 1099 384.32C1098.69 381.2 1098.48 378.288 1098.37 375.584C1098.37 372.88 1098.37 370.852 1098.37 369.5C1098.48 368.044 1098.89 366.692 1099.62 365.444C1100.35 364.196 1101.29 363.468 1102.43 363.26C1104.3 363.364 1105.81 364.248 1106.95 365.912C1108.1 367.472 1108.62 369.448 1108.51 371.84C1108.51 373.712 1108.57 375.792 1108.67 378.08C1108.77 380.368 1108.98 382.656 1109.29 384.944C1109.61 387.232 1109.97 389.468 1110.39 391.652C1110.8 393.732 1111.32 395.448 1111.95 396.8ZM1137.09 357.02C1137.4 358.58 1137.71 360.348 1138.03 362.324C1138.44 364.196 1138.86 366.172 1139.27 368.252C1139.69 370.228 1140.05 372.256 1140.37 374.336C1140.68 376.416 1140.94 378.392 1141.15 380.264C1142.39 377.56 1143.75 374.7 1145.2 371.684C1146.66 368.668 1148.22 365.912 1149.88 363.416C1151.65 360.816 1153.47 358.684 1155.34 357.02C1157.32 355.356 1159.45 354.524 1161.74 354.524C1165.17 354.524 1168.03 355.772 1170.32 358.268C1172.71 360.764 1174.69 363.884 1176.25 367.628C1177.91 371.268 1179.21 375.116 1180.15 379.172C1181.08 383.228 1181.86 386.816 1182.49 389.936C1183.11 392.744 1181.86 394.824 1178.74 396.176C1177.29 396.904 1176.19 397.008 1175.47 396.488C1174.74 395.968 1174.32 395.448 1174.22 394.928C1173.7 393.68 1173.02 391.496 1172.19 388.376C1171.46 385.256 1170.58 382.084 1169.54 378.86C1168.6 375.636 1167.51 372.828 1166.26 370.436C1165.01 368.044 1163.61 366.952 1162.05 367.16C1160.18 367.264 1158.51 368.668 1157.06 371.372C1155.81 373.556 1154.51 376 1153.16 378.704C1151.91 381.304 1150.66 384.008 1149.41 386.816C1148.17 389.52 1146.92 392.276 1145.67 395.084C1144.53 397.788 1143.43 400.284 1142.39 402.572C1141.67 403.3 1140.73 403.82 1139.59 404.132C1138.55 404.34 1137.45 404.236 1136.31 403.82C1135.27 403.508 1134.44 402.988 1133.81 402.26C1133.19 401.532 1132.88 400.804 1132.88 400.076C1131.94 391.964 1130.95 384.58 1129.91 377.924C1128.98 371.268 1127.73 364.456 1126.17 357.488C1125.44 355.096 1125.29 353.224 1125.7 351.872C1126.22 350.416 1127.78 349.844 1130.38 350.156C1134.02 350.78 1136.26 353.068 1137.09 357.02ZM1221.62 365.444C1222.45 366.588 1223.23 368.044 1223.96 369.812C1224.79 371.476 1225.41 373.192 1225.83 374.96C1226.45 377.768 1227.13 380.836 1227.86 384.164C1228.69 387.388 1229.47 390.768 1230.2 394.304C1231.03 397.84 1231.76 401.428 1232.38 405.068C1233.11 408.708 1233.73 412.192 1234.25 415.52C1234.88 420.096 1234.51 424.464 1233.16 428.624C1231.91 432.888 1229.78 436.684 1226.76 440.012C1223.75 443.34 1220 445.992 1215.53 447.968C1211.06 449.944 1206.02 451.036 1200.4 451.244C1199.15 451.14 1197.85 450.516 1196.5 449.372C1195.15 448.332 1194.47 447.24 1194.47 446.096C1194.37 444.952 1194.89 444.016 1196.03 443.288C1197.28 442.664 1198.53 442.248 1199.78 442.04C1201.96 441.832 1204.2 441.364 1206.48 440.636C1208.88 440.012 1211.11 439.076 1213.19 437.828C1215.27 436.58 1217.14 435.072 1218.81 433.304C1220.58 431.536 1221.93 429.456 1222.86 427.064C1223.59 425.192 1223.96 422.904 1223.96 420.2C1223.96 417.392 1223.75 414.636 1223.33 411.932C1223.02 409.228 1222.55 406.68 1221.93 404.288C1221.41 401.792 1220.94 399.92 1220.52 398.672C1219.8 399.4 1218.86 400.18 1217.72 401.012C1216.68 401.844 1215.48 402.624 1214.13 403.352C1212.78 404.08 1211.27 404.652 1209.6 405.068C1208.04 405.484 1206.43 405.64 1204.77 405.536C1203 405.432 1201.34 404.808 1199.78 403.664C1198.32 402.52 1197.02 401.064 1195.88 399.296C1194.73 397.424 1193.8 395.292 1193.07 392.9C1192.44 390.508 1192.13 388.012 1192.13 385.412C1192.34 379.172 1193.9 373.66 1196.81 368.876C1199.83 363.988 1204.61 360.192 1211.16 357.488C1211.68 357.384 1212.36 357.28 1213.19 357.176C1214.13 357.072 1215.06 357.072 1216 357.176C1216.94 357.176 1217.82 357.28 1218.65 357.488C1219.59 357.696 1220.37 358.008 1220.99 358.424C1222.14 359.256 1222.71 360.452 1222.71 362.012C1222.71 363.572 1222.34 364.716 1221.62 365.444ZM1201.96 386.816C1201.96 387.96 1202.06 389.26 1202.27 390.716C1202.48 392.068 1203.16 393.056 1204.3 393.68C1205.55 394.408 1207.06 394.512 1208.82 393.992C1210.7 393.472 1212.41 392.588 1213.97 391.34C1215.43 390.196 1216.36 388.948 1216.78 387.596C1217.3 386.14 1217.3 384.216 1216.78 381.824C1216.26 379.432 1215.69 376.936 1215.06 374.336C1214.44 371.736 1214.02 369.396 1213.82 367.316C1212.57 367.94 1211.22 368.824 1209.76 369.968C1208.41 371.112 1207.16 372.568 1206.02 374.336C1204.87 376 1203.88 377.872 1203.05 379.952C1202.32 382.032 1201.96 384.32 1201.96 386.816ZM1338.33 341.264C1338.12 341.888 1337.39 342.616 1336.14 343.448C1334.89 344.28 1333.85 344.696 1333.02 344.696C1328.55 344.28 1324.08 343.916 1319.61 343.604C1315.24 343.292 1310.77 343.084 1306.19 342.98C1306.81 346.62 1307.39 350.26 1307.91 353.9C1308.53 357.54 1309.1 361.18 1309.62 364.82C1318.46 364.508 1327.2 364.04 1335.83 363.416C1337.29 363.416 1338.74 363.884 1340.2 364.82C1341.65 365.756 1342.38 366.64 1342.38 367.472C1342.38 368.616 1341.91 369.656 1340.98 370.592C1340.04 371.424 1338.9 371.944 1337.55 372.152C1333.18 372.88 1328.76 373.452 1324.29 373.868C1319.92 374.18 1315.45 374.44 1310.87 374.648C1311.39 378.288 1311.81 381.928 1312.12 385.568C1312.53 389.104 1312.9 392.64 1313.21 396.176C1313.42 397.632 1313.26 399.192 1312.74 400.856C1312.33 402.416 1311.6 403.196 1310.56 403.196C1309.62 403.196 1308.74 402.936 1307.91 402.416C1307.07 401.896 1306.29 401.324 1305.57 400.7C1304.94 399.972 1304.42 399.192 1304.01 398.36C1303.59 397.528 1303.33 396.8 1303.23 396.176C1302.19 387.232 1301.04 378.34 1299.79 369.5C1298.65 360.66 1297.35 351.768 1295.89 342.824H1290.75C1289.29 342.824 1287.94 342.668 1286.69 342.356C1285.44 342.044 1284.51 341.264 1283.88 340.016C1283.67 339.704 1283.52 339.184 1283.41 338.456C1283.41 337.728 1283.47 337 1283.57 336.272C1283.78 335.544 1284.09 334.868 1284.51 334.244C1284.92 333.62 1285.49 333.204 1286.22 332.996C1290.28 332.372 1294.59 332.112 1299.17 332.216C1303.85 332.32 1308.37 332.632 1312.74 333.152C1317.21 333.568 1321.37 334.192 1325.22 335.024C1329.17 335.856 1332.55 336.74 1335.36 337.676C1337.13 338.716 1338.12 339.912 1338.33 341.264ZM1364.01 362.324C1363.39 365.132 1362.76 368.252 1362.14 371.684C1361.52 375.012 1361.05 378.236 1360.74 381.356C1360.53 384.476 1360.53 387.284 1360.74 389.78C1361.05 392.276 1361.72 394.044 1362.76 395.084C1364.53 395.396 1366.56 394.668 1368.85 392.9C1371.14 391.028 1373.37 388.688 1375.56 385.88C1377.74 383.072 1379.72 380.056 1381.48 376.832C1383.25 373.504 1384.5 370.592 1385.23 368.096C1385.64 366.848 1386.01 365.548 1386.32 364.196C1386.63 362.844 1386.79 361.44 1386.79 359.984C1386.79 359.152 1387.31 358.372 1388.35 357.644C1389.49 356.812 1390.43 356.344 1391.16 356.24C1391.68 356.136 1392.25 356.24 1392.87 356.552C1393.6 356.864 1394.22 357.332 1394.74 357.956C1395.37 358.476 1395.89 359.152 1396.3 359.984C1396.82 360.712 1397.08 361.492 1397.08 362.324C1397.29 365.444 1397.6 368.876 1398.02 372.62C1398.44 376.364 1398.9 380.108 1399.42 383.852C1400.05 387.596 1400.67 391.236 1401.3 394.772C1401.92 398.308 1402.54 401.48 1403.17 404.288C1403.48 405.432 1403.17 406.732 1402.23 408.188C1401.3 409.644 1400.26 410.528 1399.11 410.84C1398.18 411.048 1397.19 410.944 1396.15 410.528C1395.21 410.112 1394.48 409.28 1393.96 408.032C1393.44 406.576 1392.92 404.808 1392.4 402.728C1391.99 400.544 1391.57 398.308 1391.16 396.02C1390.84 393.628 1390.53 391.392 1390.22 389.312C1389.91 387.128 1389.7 385.308 1389.6 383.852C1388.04 386.66 1386.16 389.52 1383.98 392.432C1381.9 395.24 1379.61 397.84 1377.12 400.232C1374.72 402.52 1372.18 404.34 1369.47 405.692C1366.87 406.94 1364.17 407.408 1361.36 407.096C1357.2 406.576 1354.03 402.676 1351.84 395.396C1351.01 392.484 1350.6 389.26 1350.6 385.724C1350.7 382.188 1350.96 378.704 1351.38 375.272C1351.9 371.736 1352.47 368.408 1353.09 365.288C1353.82 362.168 1354.44 359.62 1354.96 357.644C1355.17 356.812 1355.59 356.084 1356.21 355.46C1356.84 354.732 1357.56 354.472 1358.4 354.68C1359.96 354.992 1361.36 355.928 1362.61 357.488C1363.96 359.048 1364.43 360.66 1364.01 362.324ZM1449.99 366.692C1451.97 366.588 1453.94 367.056 1455.92 368.096C1457.9 369.136 1458.88 370.748 1458.88 372.932C1458.68 374.7 1457.69 375.844 1455.92 376.364C1454.26 376.78 1452.9 376.988 1451.86 376.988C1449.78 376.988 1447.55 377.04 1445.16 377.144C1442.76 377.248 1440.32 377.404 1437.82 377.612C1437.62 381.044 1437.41 384.268 1437.2 387.284C1437.1 390.3 1436.99 393.004 1436.89 395.396C1436.78 397.684 1436.73 399.556 1436.73 401.012C1436.73 402.468 1436.78 403.248 1436.89 403.352C1439.18 402.936 1441.62 402.26 1444.22 401.324C1446.92 400.284 1449.58 399.192 1452.18 398.048C1454.88 396.8 1457.48 395.552 1459.98 394.304C1462.58 392.952 1465.02 391.704 1467.31 390.56C1468.35 390.04 1469.28 389.884 1470.12 390.092C1471.05 390.3 1471.62 390.768 1471.83 391.496C1472.04 392.64 1471.88 394.044 1471.36 395.708C1470.84 397.372 1469.91 398.88 1468.56 400.232C1467 401.48 1464.92 402.936 1462.32 404.6C1459.82 406.16 1457.12 407.668 1454.2 409.124C1451.29 410.58 1448.33 411.88 1445.31 413.024C1442.4 414.064 1439.8 414.688 1437.51 414.896C1434.08 415.208 1431.48 414.272 1429.71 412.088C1427.94 409.904 1426.96 407.148 1426.75 403.82C1426.54 400.492 1426.49 396.644 1426.59 392.276C1426.8 387.908 1427.01 383.28 1427.22 378.392C1425.24 378.6 1423.32 378.808 1421.44 379.016C1419.68 379.12 1417.96 379.276 1416.3 379.484C1414.94 379.484 1413.44 379.172 1411.77 378.548C1410.21 377.924 1409.43 376.728 1409.43 374.96C1409.43 374.336 1409.69 373.504 1410.21 372.464C1410.73 371.424 1411.88 370.644 1413.64 370.124C1417.91 369.396 1422.64 368.772 1427.84 368.252C1428.15 363.364 1428.52 358.632 1428.93 354.056C1429.35 349.48 1429.71 345.32 1430.02 341.576C1430.13 340.328 1430.49 339.236 1431.12 338.3C1431.74 337.364 1432.42 336.896 1433.14 336.896C1434.91 336.792 1436.58 337.26 1438.14 338.3C1439.8 339.236 1440.63 340.328 1440.63 341.576C1440.22 345.112 1439.8 349.116 1439.38 353.588C1439.07 358.06 1438.76 362.636 1438.45 367.316C1440.53 367.108 1442.5 367.004 1444.38 367.004C1446.35 366.9 1448.22 366.796 1449.99 366.692ZM1491.68 362.324C1491.05 365.132 1490.43 368.252 1489.8 371.684C1489.18 375.012 1488.71 378.236 1488.4 381.356C1488.19 384.476 1488.19 387.284 1488.4 389.78C1488.71 392.276 1489.39 394.044 1490.43 395.084C1492.2 395.396 1494.22 394.668 1496.51 392.9C1498.8 391.028 1501.04 388.688 1503.22 385.88C1505.4 383.072 1507.38 380.056 1509.15 376.832C1510.92 373.504 1512.16 370.592 1512.89 368.096C1513.31 366.848 1513.67 365.548 1513.98 364.196C1514.3 362.844 1514.45 361.44 1514.45 359.984C1514.45 359.152 1514.97 358.372 1516.01 357.644C1517.16 356.812 1518.09 356.344 1518.82 356.24C1519.34 356.136 1519.91 356.24 1520.54 356.552C1521.26 356.864 1521.89 357.332 1522.41 357.956C1523.03 358.476 1523.55 359.152 1523.97 359.984C1524.49 360.712 1524.75 361.492 1524.75 362.324C1524.96 365.444 1525.27 368.876 1525.68 372.62C1526.1 376.364 1526.57 380.108 1527.09 383.852C1527.71 387.596 1528.34 391.236 1528.96 394.772C1529.58 398.308 1530.21 401.48 1530.83 404.288C1531.14 405.432 1530.83 406.732 1529.9 408.188C1528.96 409.644 1527.92 410.528 1526.78 410.84C1525.84 411.048 1524.85 410.944 1523.81 410.528C1522.88 410.112 1522.15 409.28 1521.63 408.032C1521.11 406.576 1520.59 404.808 1520.07 402.728C1519.65 400.544 1519.24 398.308 1518.82 396.02C1518.51 393.628 1518.2 391.392 1517.88 389.312C1517.57 387.128 1517.36 385.308 1517.26 383.852C1515.7 386.66 1513.83 389.52 1511.64 392.432C1509.56 395.24 1507.28 397.84 1504.78 400.232C1502.39 402.52 1499.84 404.34 1497.14 405.692C1494.54 406.94 1491.83 407.408 1489.02 407.096C1484.86 406.576 1481.69 402.676 1479.51 395.396C1478.68 392.484 1478.26 389.26 1478.26 385.724C1478.36 382.188 1478.62 378.704 1479.04 375.272C1479.56 371.736 1480.13 368.408 1480.76 365.288C1481.48 362.168 1482.11 359.62 1482.63 357.644C1482.84 356.812 1483.25 356.084 1483.88 355.46C1484.5 354.732 1485.23 354.472 1486.06 354.68C1487.62 354.992 1489.02 355.928 1490.27 357.488C1491.62 359.048 1492.09 360.66 1491.68 362.324ZM1588.89 354.68C1587.02 355.72 1585.04 356.812 1582.96 357.956C1580.98 359.1 1578.96 360.452 1576.88 362.012C1574.9 363.468 1572.98 365.236 1571.1 367.316C1569.34 369.292 1567.72 371.684 1566.27 374.492C1564.19 378.444 1562.78 382.5 1562.06 386.66C1561.33 390.716 1560.86 394.72 1560.65 398.672C1560.65 400.544 1560.18 402.468 1559.25 404.444C1558.42 406.316 1557.22 407.252 1555.66 407.252C1553.68 407.252 1552.07 406.264 1550.82 404.288C1549.68 402.208 1548.9 400.232 1548.48 398.36C1546.72 390.976 1545.26 383.696 1544.12 376.52C1542.97 369.24 1541.98 362.012 1541.15 354.836C1541.15 353.38 1541.57 352.444 1542.4 352.028C1543.34 351.612 1544.38 351.456 1545.52 351.56C1546.77 351.664 1547.96 351.976 1549.11 352.496C1550.25 353.016 1550.93 353.848 1551.14 354.992C1551.55 358.84 1552.07 362.896 1552.7 367.16C1553.32 371.32 1553.94 374.908 1554.57 377.924C1554.98 374.388 1556.13 370.956 1558 367.628C1559.87 364.3 1562.16 361.284 1564.86 358.58C1567.67 355.876 1570.79 353.588 1574.22 351.716C1577.76 349.844 1581.35 348.596 1584.99 347.972C1586.55 347.764 1587.85 347.764 1588.89 347.972C1589.93 348.18 1590.66 348.544 1591.07 349.064C1591.49 349.584 1591.54 350.416 1591.23 351.56C1591.02 352.704 1590.24 353.744 1588.89 354.68ZM1636.06 371.84C1632 374.232 1627.63 376.104 1622.95 377.456C1618.27 378.704 1613.23 379.328 1607.82 379.328C1608.03 382.968 1609.07 385.88 1610.94 388.064C1612.81 390.144 1615.15 391.392 1617.96 391.808C1619.63 392.016 1621.29 391.964 1622.95 391.652C1624.72 391.34 1626.33 390.872 1627.79 390.248C1629.35 389.52 1630.75 388.74 1632 387.908C1633.25 387.076 1634.34 386.244 1635.28 385.412C1636.21 384.58 1637.2 384.06 1638.24 383.852C1639.28 383.54 1640.06 383.488 1640.58 383.696C1642.04 384.216 1642.56 385.776 1642.14 388.376C1640.48 391.704 1638.09 394.564 1634.97 396.956C1631.85 399.244 1628.36 400.7 1624.51 401.324C1621.19 401.948 1617.75 401.792 1614.22 400.856C1610.68 399.92 1607.51 398.1 1604.7 395.396C1602.31 393.004 1600.49 390.196 1599.24 386.972C1597.99 383.748 1597.21 380.42 1596.9 376.988C1596.59 373.764 1596.85 370.696 1597.68 367.784C1598.62 364.872 1600.02 362.324 1601.89 360.14C1603.77 357.852 1606.11 355.98 1608.91 354.524C1611.72 353.068 1615 352.236 1618.74 352.028C1623.21 351.716 1627.27 352.548 1630.91 354.524C1634.55 356.5 1637.1 359.256 1638.55 362.792C1639.39 364.768 1639.59 366.484 1639.18 367.94C1638.87 369.396 1637.83 370.696 1636.06 371.84ZM1618.12 361.232C1617.08 361.44 1615.93 361.804 1614.69 362.324C1613.54 362.844 1612.45 363.52 1611.41 364.352C1610.47 365.08 1609.59 365.964 1608.76 367.004C1608.03 367.94 1607.61 369.032 1607.51 370.28C1609.28 370.28 1611.2 370.124 1613.28 369.812C1615.47 369.5 1617.55 369.136 1619.52 368.72C1621.6 368.2 1623.47 367.628 1625.14 367.004C1626.91 366.38 1628.36 365.704 1629.51 364.976C1628.67 363 1627.11 361.804 1624.83 361.388C1622.64 360.868 1620.41 360.816 1618.12 361.232ZM1729.01 351.404C1729.43 351.924 1729.64 352.6 1729.64 353.432C1729.74 354.16 1729.64 354.784 1729.32 355.304C1728.8 356.448 1727.92 356.864 1726.67 356.552C1724.49 356.032 1722.2 355.824 1719.81 355.928C1717.42 356.032 1715.02 356.968 1712.63 358.736C1710.24 360.504 1708.37 363.104 1707.02 366.536C1705.66 369.864 1704.99 373.348 1704.99 376.988C1704.99 380.524 1705.82 383.592 1707.48 386.192C1709.25 388.688 1711.49 390.508 1714.19 391.652C1715.86 392.38 1717.73 392.796 1719.81 392.9C1721.89 393.004 1723.97 392.952 1726.05 392.744C1728.23 392.432 1730.36 392.016 1732.44 391.496C1734.52 390.872 1736.5 390.196 1738.37 389.468C1739 389.26 1739.57 389.312 1740.09 389.624C1740.71 389.936 1741.13 390.352 1741.34 390.872C1741.86 392.224 1741.6 393.576 1740.56 394.928C1739.31 396.28 1737.64 397.476 1735.56 398.516C1733.48 399.556 1731.2 400.388 1728.7 401.012C1726.2 401.636 1723.66 402 1721.06 402.104C1718.46 402.104 1716.01 401.792 1713.72 401.168C1710.5 400.336 1707.74 399.14 1705.46 397.58C1703.27 395.916 1701.45 394.044 1700 391.964C1698.54 389.78 1697.45 387.492 1696.72 385.1C1695.99 382.604 1695.58 380.056 1695.47 377.456C1695.26 371.216 1696.46 365.6 1699.06 360.608C1701.76 355.616 1705.51 351.924 1710.29 349.532C1713.83 347.764 1717.36 347.088 1720.9 347.504C1724.54 347.816 1727.24 349.116 1729.01 351.404ZM1786.23 354.056C1789.35 355.2 1791.95 356.916 1794.03 359.204C1796.21 361.492 1797.87 364.092 1799.02 367.004C1800.16 369.812 1800.79 372.724 1800.89 375.74C1801.1 378.756 1800.79 381.564 1799.95 384.164C1798.81 387.076 1797.35 389.936 1795.59 392.744C1793.82 395.552 1791.79 398.048 1789.5 400.232C1787.21 402.416 1784.61 404.184 1781.7 405.536C1778.79 406.888 1775.57 407.564 1772.03 407.564C1767.77 407.564 1764.18 406.576 1761.27 404.6C1758.35 402.624 1756.07 400.076 1754.4 396.956C1752.74 393.836 1751.65 390.3 1751.13 386.348C1750.71 382.396 1750.81 378.444 1751.44 374.492C1751.85 371.58 1752.53 368.772 1753.47 366.068C1754.51 363.26 1755.81 360.816 1757.37 358.736C1758.93 356.552 1760.69 354.784 1762.67 353.432C1764.75 352.08 1767.09 351.404 1769.69 351.404C1771.15 351.404 1772.97 351.716 1775.15 352.34C1777.33 352.86 1779.36 353.64 1781.23 354.68C1782.59 353.432 1784.25 353.224 1786.23 354.056ZM1780.3 365.444C1779.15 364.716 1777.8 363.78 1776.24 362.636C1774.79 361.388 1773.49 360.764 1772.34 360.764C1771.09 360.764 1769.85 361.336 1768.6 362.48C1767.45 363.624 1766.41 364.976 1765.48 366.536C1764.65 367.992 1763.92 369.5 1763.29 371.06C1762.67 372.62 1762.25 373.868 1762.05 374.804C1761.73 376.364 1761.53 378.236 1761.42 380.42C1761.32 382.604 1761.47 384.788 1761.89 386.972C1762.31 389.052 1763.09 390.976 1764.23 392.744C1765.48 394.408 1767.3 395.604 1769.69 396.332C1771.15 396.748 1772.86 396.748 1774.84 396.332C1776.81 395.812 1778.74 394.928 1780.61 393.68C1782.59 392.432 1784.41 390.768 1786.07 388.688C1787.84 386.608 1789.19 384.216 1790.13 381.512C1791.17 378.496 1791.17 375.376 1790.13 372.152C1789.19 368.824 1787.21 366.432 1784.2 364.976C1783.47 365.496 1782.74 365.756 1782.01 365.756C1781.29 365.756 1780.71 365.652 1780.3 365.444ZM1839.78 329.408C1839.47 327.536 1839.57 325.82 1840.09 324.26C1840.72 322.7 1841.91 321.816 1843.68 321.608C1845.24 321.4 1846.59 321.816 1847.74 322.856C1848.98 323.896 1849.76 325.248 1850.08 326.912C1852.16 338.872 1854.08 350.78 1855.85 362.636C1857.72 374.388 1859.38 385.932 1860.84 397.268C1861.26 400.284 1861.05 402.364 1860.22 403.508C1859.38 404.548 1858.4 405.328 1857.25 405.848C1856 406.368 1854.81 406.368 1853.66 405.848C1852.62 405.328 1851.95 404.392 1851.64 403.04L1851.48 402.104L1850.86 402.26C1847.42 403.508 1843.84 404.236 1840.09 404.444C1836.35 404.548 1832.76 404.08 1829.33 403.04C1825.9 402 1822.83 400.336 1820.12 398.048C1817.52 395.656 1815.65 392.64 1814.51 389C1812.01 380.992 1813.57 373.712 1819.19 367.16C1821.58 364.456 1824.54 362.012 1828.08 359.828C1831.62 357.644 1835.88 355.928 1840.87 354.68L1843.68 354.056L1839.78 329.408ZM1824.02 385.1C1824.65 387.596 1825.79 389.52 1827.46 390.872C1829.12 392.224 1831.1 393.16 1833.38 393.68C1835.67 394.096 1838.12 394.148 1840.72 393.836C1843.32 393.524 1845.86 392.952 1848.36 392.12L1849.76 391.652L1845.4 364.196L1842.28 364.976C1840.09 365.6 1837.75 366.588 1835.26 367.94C1832.86 369.188 1830.73 370.696 1828.86 372.464C1826.99 374.232 1825.53 376.208 1824.49 378.392C1823.56 380.576 1823.4 382.812 1824.02 385.1ZM1906.93 371.84C1902.87 374.232 1898.5 376.104 1893.82 377.456C1889.14 378.704 1884.1 379.328 1878.69 379.328C1878.9 382.968 1879.94 385.88 1881.81 388.064C1883.68 390.144 1886.02 391.392 1888.83 391.808C1890.49 392.016 1892.16 391.964 1893.82 391.652C1895.59 391.34 1897.2 390.872 1898.66 390.248C1900.22 389.52 1901.62 388.74 1902.87 387.908C1904.12 387.076 1905.21 386.244 1906.15 385.412C1907.08 384.58 1908.07 384.06 1909.11 383.852C1910.15 383.54 1910.93 383.488 1911.45 383.696C1912.91 384.216 1913.43 385.776 1913.01 388.376C1911.35 391.704 1908.95 394.564 1905.83 396.956C1902.71 399.244 1899.23 400.7 1895.38 401.324C1892.05 401.948 1888.62 401.792 1885.09 400.856C1881.55 399.92 1878.38 398.1 1875.57 395.396C1873.18 393.004 1871.36 390.196 1870.11 386.972C1868.86 383.748 1868.08 380.42 1867.77 376.988C1867.46 373.764 1867.72 370.696 1868.55 367.784C1869.49 364.872 1870.89 362.324 1872.76 360.14C1874.63 357.852 1876.97 355.98 1879.78 354.524C1882.59 353.068 1885.87 352.236 1889.61 352.028C1894.08 351.716 1898.14 352.548 1901.78 354.524C1905.42 356.5 1907.97 359.256 1909.42 362.792C1910.25 364.768 1910.46 366.484 1910.05 367.94C1909.73 369.396 1908.69 370.696 1906.93 371.84ZM1888.99 361.232C1887.95 361.44 1886.8 361.804 1885.55 362.324C1884.41 362.844 1883.32 363.52 1882.28 364.352C1881.34 365.08 1880.46 365.964 1879.63 367.004C1878.9 367.94 1878.48 369.032 1878.38 370.28C1880.15 370.28 1882.07 370.124 1884.15 369.812C1886.33 369.5 1888.41 369.136 1890.39 368.72C1892.47 368.2 1894.34 367.628 1896.01 367.004C1897.77 366.38 1899.23 365.704 1900.37 364.976C1899.54 363 1897.98 361.804 1895.69 361.388C1893.51 360.868 1891.27 360.816 1888.99 361.232ZM1970.51 354.68C1968.64 355.72 1966.66 356.812 1964.58 357.956C1962.6 359.1 1960.58 360.452 1958.5 362.012C1956.52 363.468 1954.6 365.236 1952.72 367.316C1950.96 369.292 1949.34 371.684 1947.89 374.492C1945.81 378.444 1944.4 382.5 1943.68 386.66C1942.95 390.716 1942.48 394.72 1942.27 398.672C1942.27 400.544 1941.8 402.468 1940.87 404.444C1940.04 406.316 1938.84 407.252 1937.28 407.252C1935.3 407.252 1933.69 406.264 1932.44 404.288C1931.3 402.208 1930.52 400.232 1930.1 398.36C1928.34 390.976 1926.88 383.696 1925.74 376.52C1924.59 369.24 1923.6 362.012 1922.77 354.836C1922.77 353.38 1923.19 352.444 1924.02 352.028C1924.96 351.612 1926 351.456 1927.14 351.56C1928.39 351.664 1929.58 351.976 1930.73 352.496C1931.87 353.016 1932.55 353.848 1932.76 354.992C1933.17 358.84 1933.69 362.896 1934.32 367.16C1934.94 371.32 1935.56 374.908 1936.19 377.924C1936.6 374.388 1937.75 370.956 1939.62 367.628C1941.49 364.3 1943.78 361.284 1946.48 358.58C1949.29 355.876 1952.41 353.588 1955.84 351.716C1959.38 349.844 1962.97 348.596 1966.61 347.972C1968.17 347.764 1969.47 347.764 1970.51 347.972C1971.55 348.18 1972.28 348.544 1972.69 349.064C1973.11 349.584 1973.16 350.416 1972.85 351.56C1972.64 352.704 1971.86 353.744 1970.51 354.68ZM2009.1 361.856C2008.89 360.712 2008.68 359.62 2008.48 358.58C2008.27 357.54 2007.75 356.864 2006.92 356.552C2005.15 356.032 2003.28 355.98 2001.3 356.396C1999.32 356.812 1997.5 357.488 1995.84 358.424C1994.18 359.256 1992.77 360.244 1991.63 361.388C1990.48 362.428 1989.86 363.364 1989.76 364.196C1989.44 365.756 1989.86 367.264 1991 368.72C1992.15 370.176 1993.81 371.632 1996 373.088C1999.64 375.272 2003.43 377.508 2007.38 379.796C2011.34 382.084 2014.66 384.424 2017.37 386.816C2020.07 389.208 2021.89 391.86 2022.83 394.772C2023.87 397.58 2023.66 400.804 2022.2 404.444C2021.06 407.252 2018.93 409.54 2015.81 411.308C2012.69 413.076 2009.26 414.48 2005.51 415.52C2001.77 416.456 1998.02 417.132 1994.28 417.548C1990.54 417.86 1987.36 418.016 1984.76 418.016C1984.14 418.016 1983.36 417.808 1982.42 417.392C1981.59 416.872 1980.76 416.3 1979.93 415.676C1979.2 415.052 1978.52 414.428 1977.9 413.804C1977.38 413.076 1977.12 412.452 1977.12 411.932C1977.12 410.06 1977.95 408.76 1979.62 408.032C1981.28 407.304 1983 406.94 1984.76 406.94C1987.26 406.94 1989.91 406.836 1992.72 406.628C1995.63 406.316 1998.39 405.9 2000.99 405.38C2003.59 404.756 2005.93 403.976 2008.01 403.04C2010.09 402.104 2011.54 400.908 2012.38 399.452C2013.1 398.204 2012.64 396.748 2010.97 395.084C2009.41 393.316 2007.28 391.496 2004.58 389.624C2001.98 387.752 1999.12 385.932 1996 384.164C1992.98 382.396 1990.38 380.784 1988.2 379.328C1986.01 377.872 1984.14 376.156 1982.58 374.18C1981.02 372.1 1980.03 369.552 1979.62 366.536C1979.51 363.832 1980.08 361.232 1981.33 358.736C1982.58 356.24 1984.19 354.056 1986.17 352.184C1988.25 350.208 1990.59 348.648 1993.19 347.504C1995.79 346.36 1998.39 345.788 2000.99 345.788C2005.46 345.996 2009.15 347.244 2012.06 349.532C2014.98 351.716 2016.69 354.992 2017.21 359.36C2017.21 360.816 2016.95 362.012 2016.43 362.948C2016.02 363.884 2015.24 364.456 2014.09 364.664C2012.64 364.872 2011.44 364.716 2010.5 364.196C2009.67 363.572 2009.2 362.792 2009.1 361.856Z" fill="#273E6B"/>
</svg>
