<svg width="2196" height="513" viewBox="0 0 2196 513" fill="none" xmlns="http://www.w3.org/2000/svg">
<path d="M256 512.417C397.385 512.417 512 397.802 512 256.417C512 115.032 397.385 0.416992 256 0.416992C114.615 0.416992 0 115.032 0 256.417C0 397.802 114.615 512.417 256 512.417Z" fill="white"/>
<path d="M220.762 21.4038C222.902 21.4095 225.041 21.4133 227.18 21.4161C232.181 21.4256 237.182 21.4483 242.183 21.4767C247.889 21.5089 253.596 21.524 259.303 21.5383C271.013 21.5676 282.722 21.6178 294.431 21.6812C293.39 25.2945 292.284 28.7221 290.834 32.1488C290.46 33.0351 290.087 33.9223 289.702 34.835C289.305 35.7677 288.908 36.6994 288.499 37.6595C288.088 38.6291 287.678 39.5978 287.256 40.5967C284.45 47.2039 281.604 53.7855 278.697 60.3359C276.929 64.3241 275.172 68.318 273.417 72.3128C272.962 73.3477 272.962 73.3477 272.498 74.4044C271.76 76.0832 271.023 77.761 270.285 79.4398C268.971 79.4483 268.971 79.4484 267.63 79.4569C259.314 79.5108 250.999 79.58 242.684 79.6633C238.41 79.705 234.137 79.7428 229.863 79.7684C225.727 79.793 221.592 79.8309 217.457 79.8782C215.891 79.8943 214.324 79.9047 212.757 79.9114C180.552 80.0458 150.956 91.8598 126.239 115.421C125.535 116.092 125.535 116.092 124.815 116.777C113.312 127.91 104.375 141.387 97.0686 156.379C96.3193 157.917 95.5474 159.44 94.7747 160.963C88.1245 174.897 83.8198 190.915 80.9122 206.379C80.7965 206.994 80.6807 207.611 80.5608 208.245C78.1554 222.429 77.6558 236.686 77.6833 251.092C77.6858 253.946 77.6666 256.798 77.6458 259.652C77.5151 305.477 89.3127 352.171 117.549 385.746C118.346 386.694 119.138 387.647 119.925 388.605C136.706 408.985 158.958 422.703 182.858 428.832C183.581 429.018 184.303 429.203 185.047 429.394C194.294 431.633 203.49 431.834 212.912 431.886C214.25 431.896 215.589 431.906 216.927 431.918C221.291 431.953 225.655 431.977 230.019 431.998C230.764 432.002 231.507 432.006 232.274 432.01C239.299 432.044 246.324 432.074 253.348 432.094C262.313 432.12 271.277 432.169 280.241 432.245C286.56 432.298 292.877 432.326 299.195 432.334C302.963 432.341 306.732 432.358 310.5 432.403C314.041 432.443 317.58 432.454 321.12 432.44C322.419 432.44 323.716 432.452 325.014 432.475C331.78 432.854 331.78 432.854 337.911 430.245C339.2 428.572 340.135 427 341.059 425.045C341.616 424.116 342.173 423.187 342.746 422.23C343.272 421.265 343.796 420.299 344.337 419.305C347.822 412.995 351.473 406.82 355.161 400.663C355.714 399.738 356.266 398.813 356.835 397.859C357.615 396.559 357.615 396.559 358.411 395.234C358.877 394.455 359.344 393.677 359.825 392.875C361.042 390.957 361.042 390.958 362.707 389.064C364.741 388.837 364.741 388.837 367.329 388.849C368.78 388.849 368.78 388.849 370.259 388.85C371.307 388.859 372.354 388.869 373.434 388.879C374.503 388.882 375.573 388.884 376.675 388.887C379.52 388.894 382.364 388.913 385.208 388.934C388.11 388.953 391.013 388.962 393.914 388.971C399.61 388.992 405.305 389.024 411 389.064C409.755 393.777 408.007 397.949 406.02 402.294C405.687 403.033 405.353 403.77 405.008 404.532C403.904 406.972 402.794 409.41 401.684 411.848C400.507 414.446 399.33 417.044 398.153 419.644C397.33 421.462 396.506 423.279 395.682 425.096C392.658 431.768 389.656 438.452 386.665 445.144C385.809 447.054 384.954 448.965 384.099 450.876C382.861 453.643 381.624 456.409 380.389 459.178C367.776 487.454 367.776 487.454 365.205 490.378C363.209 490.479 361.238 490.518 359.241 490.517C358.609 490.521 357.977 490.525 357.326 490.528C355.191 490.539 353.056 490.542 350.921 490.546C349.397 490.551 347.871 490.558 346.346 490.565C341.312 490.584 336.277 490.594 331.243 490.603C329.503 490.607 327.765 490.612 326.026 490.616C317.832 490.634 309.639 490.647 301.447 490.655C292.042 490.664 282.637 490.689 273.232 490.727C265.939 490.756 258.645 490.77 251.352 490.773C247.01 490.775 242.669 490.783 238.328 490.808C206.196 490.976 174.524 489.061 144.557 474.281C143.994 474.008 143.431 473.733 142.85 473.451C133.729 468.953 125.336 463.52 117.08 457.238C116.491 456.794 115.903 456.349 115.297 455.89C107.371 449.86 100.098 443.434 93.2893 435.836C92.1744 434.596 91.0412 433.377 89.9055 432.161C84.6116 426.377 80.1562 420.055 75.7274 413.425C74.7016 411.914 73.6358 410.44 72.5667 408.971C42.2497 366.684 30.6819 307.231 31.0066 253.899C31.01 252.777 31.0141 251.654 31.0175 250.498C31.0782 234.357 31.3538 218.467 33.8168 202.532C33.9508 201.607 34.0849 200.681 34.2231 199.727C37.4379 178.044 43.6069 156.926 52.1347 137.198C52.4128 136.543 52.6917 135.889 52.9782 135.214C61.0689 116.354 71.8407 99.3059 85.0238 84.6476C86.7057 82.7349 88.2519 80.8166 89.759 78.7297C92.46 75.0634 95.5258 72.0666 98.7622 69.0243C99.1885 68.6181 99.614 68.211 100.054 67.7925C134.735 34.8019 176.094 21.0724 220.762 21.4038Z" fill="#FF2929"/>
<path d="M369.068 48.8776C374.058 53.5243 378.526 58.752 379.688 66.1771C380.465 76.0411 380.133 84.4036 374.642 92.3595C372.025 95.7388 369.505 98.829 366.276 101.455C362.866 105.377 363.233 109.916 363.166 115.174C363.176 116.526 363.186 117.878 363.197 119.231C363.194 120.636 363.189 122.042 363.183 123.446C363.176 126.392 363.186 129.336 363.21 132.281C363.238 136.019 363.222 139.754 363.192 143.492C363.174 146.397 363.18 149.302 363.192 152.207C363.196 153.583 363.192 154.958 363.18 156.333C363.121 165.123 364.272 171.98 367.623 179.849C369.507 184.303 370.724 188.952 371.983 193.672C372.465 195.44 372.946 197.207 373.428 198.975C373.644 199.787 373.861 200.599 374.084 201.437C374.58 203.225 375.152 204.986 375.745 206.735C377.076 212.345 374.929 216.722 372.52 221.517C369.212 228.337 366.326 235.301 363.54 242.414C362.199 245.837 360.843 249.253 359.488 252.668C359.22 253.344 358.952 254.02 358.677 254.717C356.363 260.535 353.964 266.303 351.523 272.053C348.655 278.811 345.856 285.594 343.14 292.433C335.409 311.904 327.423 331.24 319.415 350.566C319.012 351.54 319.012 351.54 318.6 352.533C317.876 354.281 317.152 356.028 316.427 357.776C313.898 363.891 311.393 370.02 308.882 376.146C293.972 376.19 279.063 376.224 264.153 376.244C257.229 376.254 250.305 376.267 243.381 376.289C237.341 376.308 231.303 376.32 225.264 376.324C222.07 376.327 218.876 376.333 215.682 376.347C212.668 376.359 209.653 376.363 206.638 376.36C205.022 376.361 203.405 376.371 201.789 376.382C180.348 376.325 161.134 369.336 145.716 352.092C141.314 346.989 137.741 341.727 134.783 335.385C134.299 334.359 133.814 333.333 133.315 332.275C130.255 325.473 128.068 318.486 126.192 311.155C125.99 310.372 125.788 309.59 125.58 308.783C122.754 297.137 122.025 285.47 122.037 273.434C122.033 272.072 122.03 270.71 122.026 269.349C122.02 266.514 122.02 263.678 122.024 260.843C122.028 257.977 122.022 255.11 122.007 252.244C121.833 219.038 124.58 188.418 145.768 163.22C161.821 145.652 180.792 138.991 202.651 139.041C203.551 139.04 204.451 139.039 205.379 139.038C207.28 139.038 209.183 139.04 211.085 139.043C213.92 139.048 216.754 139.043 219.589 139.037C277.031 139.016 277.031 139.016 292.242 155.048C299.244 164.104 302.246 175.083 304.717 186.562C304.868 187.243 305.019 187.924 305.175 188.624C305.697 192.343 305.669 195.992 305.661 199.752C305.662 200.559 305.663 201.366 305.664 202.197C305.664 203.898 305.663 205.599 305.659 207.298C305.654 209.903 305.659 212.507 305.664 215.111C305.664 216.765 305.663 218.419 305.661 220.073C305.663 220.852 305.664 221.632 305.666 222.434C305.654 225.568 305.594 228.12 304.717 231.115C290.268 232.029 275.868 232.176 261.401 232.063C261.384 231.264 261.368 230.466 261.351 229.644C261.286 226.657 261.213 223.67 261.136 220.683C261.105 219.395 261.076 218.106 261.049 216.818C261.011 214.957 260.962 213.096 260.912 211.235C260.887 210.117 260.86 209.001 260.833 207.85C260.502 203.756 260.008 199.832 257.974 196.348C255.574 194.433 253.115 194.682 250.286 194.696C249.355 194.684 249.355 194.684 248.406 194.672C246.35 194.649 244.294 194.648 242.238 194.649C240.805 194.643 239.371 194.636 237.939 194.627C234.929 194.615 231.92 194.613 228.911 194.619C225.073 194.625 221.235 194.596 217.397 194.557C214.434 194.533 211.47 194.53 208.506 194.534C207.092 194.532 205.679 194.523 204.265 194.506C196.389 194.422 189.851 194.624 183.097 199.833C182.342 200.361 181.585 200.889 180.806 201.433C171.711 212.071 170.076 225.361 170.101 239.494C170.095 241.025 170.087 242.555 170.08 244.086C170.067 247.278 170.067 250.47 170.076 253.663C170.086 257.725 170.057 261.784 170.019 265.845C169.994 269.002 169.993 272.158 169.998 275.314C169.997 276.811 169.989 278.307 169.972 279.802C169.856 291.497 171.877 301.419 179.14 310.244C186.617 317.65 195.402 320.682 205.173 320.557C205.915 320.559 206.657 320.561 207.422 320.563C209.845 320.566 212.267 320.548 214.69 320.53C216.386 320.527 218.083 320.525 219.779 320.525C223.32 320.52 226.86 320.507 230.402 320.485C234.937 320.459 239.473 320.448 244.009 320.444C247.505 320.441 251.002 320.431 254.498 320.42C256.172 320.414 257.844 320.409 259.517 320.406C261.851 320.4 264.186 320.387 266.52 320.371C267.208 320.37 267.897 320.37 268.607 320.369C271.844 320.341 274.924 320.3 278.061 319.271C279.245 317.836 279.245 317.836 280.01 315.875C280.353 315.11 280.696 314.345 281.05 313.557C281.42 312.686 281.792 311.815 282.174 310.918C282.585 309.986 282.996 309.054 283.42 308.095C284.394 305.884 285.362 303.67 286.323 301.452C288.324 296.843 290.365 292.258 292.404 287.671C299.982 270.593 307.445 253.482 314.434 236.08C316.59 230.721 318.801 225.395 321.033 220.077C321.543 218.858 321.543 218.858 322.065 217.615C323.422 214.381 324.78 211.147 326.143 207.915C327.756 204.093 329.348 200.264 330.91 196.414C332.413 192.731 334.038 189.147 335.718 185.564C343.403 168.555 344.542 154.019 344.16 135.336C344.119 132.502 344.145 129.67 344.17 126.836C344.187 124.076 344.168 121.316 344.136 118.556C344.125 117.255 344.125 115.953 344.135 114.652C344.275 107.269 344.275 107.269 341.396 100.967C339.452 99.1911 339.452 99.1911 337.421 97.8365C332.275 94.2098 328.8 87.8512 327.209 81.3437C326.192 71.5375 327.251 63.921 332.207 55.75C342.197 41.5056 355.447 40.5321 369.068 48.8776Z" fill="#FF2929"/>
<path d="M433.404 196.555C434.64 196.56 434.64 196.56 435.9 196.567C437.298 196.567 437.298 196.567 438.724 196.568C439.735 196.578 440.744 196.587 441.785 196.598C442.816 196.6 443.847 196.602 444.91 196.605C447.652 196.615 450.393 196.632 453.135 196.653C455.933 196.672 458.731 196.68 461.529 196.69C467.019 196.712 472.51 196.743 478 196.783C477.023 200.225 475.984 203.583 474.736 206.907C474.421 207.751 474.108 208.596 473.784 209.465C473.273 210.841 473.273 210.841 472.751 212.243C469.235 221.78 465.968 231.401 462.773 241.083C458.663 253.522 454.302 265.808 449.765 278.051C449.542 278.657 449.317 279.262 449.086 279.886C448.862 280.49 448.638 281.095 448.408 281.718C445.981 288.282 443.643 294.888 441.311 301.497C435.155 318.92 428.871 336.285 422.588 353.649C419.708 361.611 416.843 369.581 413.976 377.55C398.336 377.55 382.696 377.55 366.582 377.55C361.255 357.743 356.592 334.928 348 301.297C354.496 283.077 362.103 265 369.076 247.207C374.575 261.67 384.137 288.785 391.526 310C394.507 301.956 397.32 293.844 400.069 285.694C405.794 268.73 411.637 251.821 417.51 234.924C418.149 233.083 418.787 231.243 419.426 229.402C419.734 228.513 420.043 227.625 420.361 226.709C421.947 222.127 423.502 217.534 425.016 212.92C425.32 211.996 425.623 211.073 425.935 210.122C426.511 208.363 427.082 206.602 427.649 204.84C428.032 203.667 428.032 203.667 428.423 202.471C428.645 201.784 428.866 201.096 429.095 200.388C430.136 197.779 430.881 196.848 433.404 196.555Z" fill="#FF2929"/>
<path d="M484 128.145C483.639 135.895 481.659 142.359 476.948 148.078C475.47 149.561 475.47 149.561 474.117 150.689C469.47 154.759 467.008 159.396 464.366 165.234C456.973 181.568 451.483 182.754 436.918 182.518C438.422 176.078 440.392 169.943 442.598 163.786C443.874 160.215 445.024 156.633 446.05 152.957C445.434 152.723 444.819 152.488 444.185 152.246C438.842 149.451 434.583 142.681 432.456 136.475C420.824 91.6432 482.675 74.9556 484 128.145Z" fill="#FF2929"/>
<path d="M389.5 337.848C394.747 337.848 399 332.881 399 326.754C399 320.628 394.747 315.661 389.5 315.661C384.253 315.661 380 320.628 380 326.754C380 332.881 384.253 337.848 389.5 337.848Z" fill="white"/>
<path d="M660.893 101.872C656.805 96.908 652.863 93.623 649.067 92.017C645.271 90.265 641.475 89.389 637.679 89.389C628.189 89.389 621.254 93.842 616.874 102.748C612.64 111.508 610.523 123.699 610.523 139.321C610.523 146.767 610.961 153.629 611.837 159.907C612.859 166.039 614.538 171.295 616.874 175.675C619.21 180.055 622.276 183.486 626.072 185.968C630.014 188.45 634.905 189.691 640.745 189.691C645.855 189.691 650.819 189.107 655.637 187.939C660.601 186.625 665.127 185.165 669.215 183.559L677.099 208.087C672.573 209.985 666.879 211.664 660.017 213.124C653.155 214.584 645.271 215.314 636.365 215.314C613.881 215.314 597.456 208.963 587.09 196.261C576.724 183.413 571.541 165.236 571.541 141.73C571.541 130.342 572.855 119.903 575.483 110.413C578.257 100.923 582.345 92.747 587.747 85.885C593.295 78.877 600.157 73.475 608.333 69.679C616.655 65.737 626.437 63.766 637.679 63.766C643.519 63.766 648.629 64.277 653.009 65.299C657.535 66.321 661.477 67.708 664.835 69.46C668.193 71.066 671.113 72.964 673.595 75.154C676.223 77.344 678.559 79.607 680.603 81.943L660.893 101.872ZM731.171 101.872C748.545 101.872 761.174 106.836 769.058 116.764C777.088 126.692 781.103 140.416 781.103 157.936C781.103 166.258 780.008 173.996 777.818 181.15C775.774 188.158 772.562 194.29 768.182 199.546C763.948 204.656 758.546 208.744 751.976 211.81C745.552 214.73 738.033 216.19 729.419 216.19C720.659 216.19 713.067 214.949 706.643 212.467C700.365 209.839 695.182 206.116 691.094 201.298C687.152 196.48 684.159 190.64 682.115 183.778C680.217 176.77 679.268 168.959 679.268 160.345C679.268 152.023 680.29 144.285 682.334 137.131C684.524 129.977 687.736 123.845 691.97 118.735C696.35 113.479 701.752 109.391 708.176 106.471C714.746 103.405 722.411 101.872 731.171 101.872ZM729.2 127.933C726.572 127.933 724.382 128.736 722.63 130.342C720.878 131.802 719.491 133.919 718.469 136.693C717.593 139.321 716.936 142.46 716.498 146.11C716.206 149.76 716.06 153.702 716.06 157.936C716.06 162.316 716.279 166.477 716.717 170.419C717.155 174.361 717.885 177.792 718.907 180.712C720.075 183.632 721.681 185.968 723.725 187.72C725.769 189.326 728.324 190.129 731.39 190.129C734.018 190.129 736.208 189.326 737.96 187.72C739.712 186.114 741.026 183.997 741.902 181.369C742.924 178.595 743.581 175.383 743.873 171.733C744.311 168.083 744.53 164.214 744.53 160.126C744.53 155.6 744.311 151.439 743.873 147.643C743.435 143.701 742.632 140.27 741.464 137.35C740.442 134.43 738.909 132.167 736.865 130.561C734.821 128.809 732.266 127.933 729.2 127.933ZM875.828 215.752L874.514 214.219C873.638 213.343 872.616 211.956 871.448 210.058C870.28 208.16 869.112 205.897 867.944 203.269C866.776 200.495 865.9 197.356 865.316 193.852C862.834 200.714 859.184 206.043 854.366 209.839C849.548 213.489 843.197 215.314 835.313 215.314C828.159 215.314 821.881 214 816.479 211.372C811.223 208.744 806.843 205.094 803.339 200.422C799.835 195.604 797.207 189.837 795.455 183.121C793.849 176.405 793.046 168.959 793.046 160.783C793.046 152.461 794.36 144.723 796.988 137.569C799.762 130.415 803.558 124.283 808.376 119.173C813.194 113.917 818.961 109.829 825.677 106.909C832.393 103.989 839.839 102.529 848.015 102.529C849.329 102.529 850.716 102.602 852.176 102.748C853.782 102.894 855.388 103.04 856.994 103.186V55.444L891.596 61.138V161.221C891.596 169.835 892.18 177.062 893.348 182.902C894.662 188.742 896.049 193.487 897.509 197.137C898.969 200.641 900.356 203.123 901.67 204.583L903.641 206.992L875.828 215.752ZM841.007 189.91C843.197 189.91 845.241 188.961 847.139 187.063C849.183 185.165 850.935 182.61 852.395 179.398C853.855 176.186 854.95 172.536 855.68 168.448C856.556 164.214 856.994 159.761 856.994 155.089V129.685C855.972 129.247 854.512 128.882 852.614 128.59C850.862 128.152 849.329 127.933 848.015 127.933C844.511 127.933 841.591 128.736 839.255 130.342C836.919 131.802 835.021 133.919 833.561 136.693C832.247 139.321 831.298 142.533 830.714 146.329C830.13 150.125 829.838 154.213 829.838 158.593C829.838 162.681 829.911 166.623 830.057 170.419C830.203 174.069 830.641 177.354 831.371 180.274C832.247 183.194 833.415 185.53 834.875 187.282C836.335 189.034 838.379 189.91 841.007 189.91ZM945.458 214.876C937.136 214.876 930.42 212.759 925.31 208.525C920.2 204.145 917.645 198.013 917.645 190.129V104.062H952.247V180.274C952.247 183.632 952.758 185.895 953.78 187.063C954.802 188.231 956.335 188.815 958.379 188.815C959.547 188.815 960.715 188.742 961.883 188.596C963.051 188.304 963.781 188.085 964.073 187.939L967.139 209.62C966.993 209.766 966.336 210.131 965.168 210.715C964 211.153 962.467 211.737 960.569 212.467C958.671 213.051 956.408 213.562 953.78 214C951.152 214.584 948.378 214.876 945.458 214.876ZM935.384 51.283C941.516 51.283 946.188 53.108 949.4 56.758C952.612 60.408 954.218 65.007 954.218 70.555C954.218 76.249 952.539 80.994 949.181 84.79C945.969 88.586 941.078 90.484 934.508 90.484C928.376 90.484 923.631 88.659 920.273 85.009C917.061 81.213 915.455 76.76 915.455 71.65C915.455 65.81 917.134 60.992 920.492 57.196C923.85 53.254 928.814 51.283 935.384 51.283ZM1044.48 214V145.672C1044.48 140.562 1043.82 136.474 1042.51 133.408C1041.34 130.196 1039.08 128.59 1035.72 128.59C1031.63 128.59 1027.84 131.291 1024.33 136.693C1020.83 141.949 1019.08 149.395 1019.08 159.031V214H984.474V157.06C984.474 148.3 983.817 141.073 982.503 135.379C981.335 129.539 979.948 124.794 978.342 121.144C976.59 117.056 974.619 113.771 972.429 111.289L1000.24 102.529C1001.56 103.989 1002.87 105.668 1004.18 107.566C1005.35 109.172 1006.45 111.289 1007.47 113.917C1008.64 116.399 1009.59 119.246 1010.32 122.458C1014.11 115.596 1019.3 110.559 1025.87 107.347C1032.58 104.135 1039.88 102.529 1047.77 102.529C1059.15 102.529 1067.26 106.033 1072.07 113.041C1076.89 119.903 1079.3 129.101 1079.3 140.635V214H1044.48ZM1120.18 225.169C1126.6 227.359 1132.15 229.038 1136.82 230.206C1141.64 231.52 1146.75 232.177 1152.15 232.177C1157.99 232.177 1162.66 230.498 1166.17 227.14C1169.82 223.782 1171.64 218.964 1171.64 212.686C1171.64 205.97 1170.62 199.984 1168.57 194.728C1166.09 201.298 1162.44 206.408 1157.62 210.058C1152.81 213.562 1146.53 215.314 1138.79 215.314C1131.64 215.314 1125.36 214 1119.96 211.372C1114.7 208.744 1110.32 205.094 1106.82 200.422C1103.31 195.604 1100.68 189.837 1098.93 183.121C1097.33 176.405 1096.52 168.959 1096.52 160.783C1096.52 152.461 1097.84 144.723 1100.47 137.569C1103.24 130.415 1107.04 124.283 1111.85 119.173C1116.67 113.917 1122.44 109.829 1129.15 106.909C1135.87 103.989 1143.32 102.529 1151.49 102.529C1155.87 102.529 1160.4 102.821 1165.07 103.405C1169.89 103.989 1174.34 104.646 1178.43 105.376C1182.66 106.106 1186.31 106.836 1189.38 107.566C1192.59 108.15 1194.71 108.588 1195.73 108.88L1194.85 163.411C1194.85 168.083 1195.22 172.463 1195.95 176.551C1196.83 180.493 1197.7 184.435 1198.58 188.377C1199.6 192.173 1200.55 196.115 1201.42 200.203C1202.3 204.291 1202.74 208.671 1202.74 213.343C1202.74 228.673 1198.36 240.426 1189.6 248.602C1180.98 256.924 1169.23 261.085 1154.34 261.085C1147.62 261.085 1140.62 260.282 1133.32 258.676C1126.02 257.07 1118.93 254.807 1112.07 251.887L1120.18 225.169ZM1144.48 189.91C1146.82 189.91 1148.94 188.961 1150.84 187.063C1152.73 185.019 1154.41 182.318 1155.87 178.96C1157.33 175.602 1158.43 171.733 1159.16 167.353C1160.03 162.973 1160.47 158.374 1160.47 153.556V129.685C1159.45 129.247 1157.99 128.882 1156.09 128.59C1154.34 128.152 1152.81 127.933 1151.49 127.933C1147.99 127.933 1145.07 128.736 1142.73 130.342C1140.4 131.802 1138.5 133.919 1137.04 136.693C1135.72 139.321 1134.78 142.533 1134.19 146.329C1133.61 150.125 1133.32 154.213 1133.32 158.593C1133.32 162.681 1133.39 166.623 1133.53 170.419C1133.68 174.069 1134.12 177.354 1134.85 180.274C1135.72 183.194 1136.89 185.53 1138.35 187.282C1139.81 189.034 1141.86 189.91 1144.48 189.91ZM1341.79 63.766C1353.33 63.766 1363.25 65.518 1371.58 69.022C1379.9 72.526 1386.76 77.49 1392.16 83.914C1397.56 90.338 1401.51 98.222 1403.99 107.566C1406.62 116.764 1407.93 127.13 1407.93 138.664C1407.93 150.052 1406.47 160.491 1403.55 169.981C1400.78 179.325 1396.54 187.355 1390.85 194.071C1385.15 200.787 1378 206.043 1369.39 209.839C1360.77 213.489 1350.62 215.314 1338.94 215.314C1327.41 215.314 1317.41 213.708 1308.94 210.496C1300.62 207.138 1293.76 202.32 1288.36 196.042C1282.95 189.618 1278.94 181.88 1276.31 172.828C1273.83 163.776 1272.59 153.41 1272.59 141.73C1272.59 130.342 1273.97 119.903 1276.75 110.413C1279.67 100.777 1283.98 92.528 1289.67 85.666C1295.36 78.658 1302.52 73.256 1311.13 69.46C1319.89 65.664 1330.11 63.766 1341.79 63.766ZM1338.73 89.389C1329.24 89.389 1322.3 93.842 1317.92 102.748C1313.69 111.508 1311.57 123.699 1311.57 139.321C1311.57 146.767 1312.01 153.556 1312.88 159.688C1313.91 165.82 1315.51 171.149 1317.7 175.675C1320.04 180.055 1323.18 183.486 1327.12 185.968C1331.06 188.45 1336.02 189.691 1342.01 189.691C1351.5 189.691 1358.36 185.457 1362.6 176.989C1366.83 168.521 1368.95 156.476 1368.95 140.854C1368.95 133.408 1368.44 126.546 1367.41 120.268C1366.54 113.99 1364.93 108.588 1362.6 104.062C1360.41 99.39 1357.34 95.813 1353.4 93.331C1349.46 90.703 1344.57 89.389 1338.73 89.389ZM1487.72 87.199C1486.99 86.031 1485.75 84.863 1484 83.695C1482.4 82.381 1480.5 81.724 1478.31 81.724C1474.95 81.724 1472.1 82.892 1469.77 85.228C1467.43 87.418 1466.26 90.63 1466.26 94.864C1466.26 98.222 1466.55 101.288 1467.14 104.062H1495.17L1490.79 130.342H1471.3V210.277C1471.3 218.599 1469.99 225.607 1467.36 231.301C1464.88 236.995 1461.66 241.813 1457.72 245.755C1453.78 249.697 1449.33 252.982 1444.36 255.61C1439.54 258.238 1434.87 260.647 1430.35 262.837L1414.58 237.214C1421.59 233.564 1426.99 229.622 1430.78 225.388C1434.73 221.3 1436.7 216.482 1436.7 210.934V130.342H1419.83V104.062H1436.7C1435.82 101.872 1435.09 99.609 1434.51 97.273C1434.07 94.937 1433.85 92.455 1433.85 89.827C1433.85 84.425 1434.8 79.68 1436.7 75.592C1438.6 71.358 1441.3 67.781 1444.8 64.861C1448.3 61.941 1452.39 59.751 1457.06 58.291C1461.88 56.685 1467.14 55.882 1472.83 55.882C1480.86 55.882 1487.21 57.196 1491.89 59.824C1496.7 62.452 1500.86 65.737 1504.37 69.679L1487.72 87.199Z" fill="#273E6B"/>
<path d="M1661.18 146.329C1660.16 143.117 1659.21 139.832 1658.33 136.474C1657.6 133.116 1656.87 129.904 1656.14 126.838C1655.56 123.772 1654.97 120.998 1654.39 118.516C1653.95 116.034 1653.51 114.063 1653.07 112.603C1652.78 114.063 1652.34 116.18 1651.76 118.954C1651.18 121.728 1650.52 124.721 1649.79 127.933C1649.21 131.145 1648.55 134.43 1647.82 137.788C1647.09 141.146 1646.29 144.212 1645.41 146.986L1624.6 214H1595.48L1554.31 65.737H1590.22L1604.24 121.363C1605.11 124.721 1605.92 128.225 1606.65 131.875C1607.38 135.525 1608.11 139.248 1608.84 143.044C1609.57 146.694 1610.22 150.271 1610.81 153.775C1611.39 157.133 1611.9 160.126 1612.34 162.754C1613.51 157.352 1614.9 150.855 1616.5 143.263C1618.25 135.525 1620.15 128.298 1622.2 121.582L1638.84 65.737H1668.19L1685.27 122.02C1687.75 130.05 1689.65 137.715 1690.96 145.015C1692.42 152.169 1693.74 158.374 1694.9 163.63C1695.63 158.374 1696.58 152.169 1697.75 145.015C1698.92 137.861 1700.52 130.123 1702.57 121.801L1716.37 65.737H1752.72L1711.55 214H1682.42L1661.18 146.329ZM1803.93 101.872C1821.3 101.872 1833.93 106.836 1841.82 116.764C1849.85 126.692 1853.86 140.416 1853.86 157.936C1853.86 166.258 1852.77 173.996 1850.58 181.15C1848.53 188.158 1845.32 194.29 1840.94 199.546C1836.71 204.656 1831.3 208.744 1824.73 211.81C1818.31 214.73 1810.79 216.19 1802.18 216.19C1793.42 216.19 1785.83 214.949 1779.4 212.467C1773.12 209.839 1767.94 206.116 1763.85 201.298C1759.91 196.48 1756.92 190.64 1754.87 183.778C1752.98 176.77 1752.03 168.959 1752.03 160.345C1752.03 152.023 1753.05 144.285 1755.09 137.131C1757.28 129.977 1760.49 123.845 1764.73 118.735C1769.11 113.479 1774.51 109.391 1780.93 106.471C1787.5 103.405 1795.17 101.872 1803.93 101.872ZM1801.96 127.933C1799.33 127.933 1797.14 128.736 1795.39 130.342C1793.64 131.802 1792.25 133.919 1791.23 136.693C1790.35 139.321 1789.69 142.46 1789.26 146.11C1788.96 149.76 1788.82 153.702 1788.82 157.936C1788.82 162.316 1789.04 166.477 1789.48 170.419C1789.91 174.361 1790.64 177.792 1791.67 180.712C1792.83 183.632 1794.44 185.968 1796.48 187.72C1798.53 189.326 1801.08 190.129 1804.15 190.129C1806.78 190.129 1808.97 189.326 1810.72 187.72C1812.47 186.114 1813.78 183.997 1814.66 181.369C1815.68 178.595 1816.34 175.383 1816.63 171.733C1817.07 168.083 1817.29 164.214 1817.29 160.126C1817.29 155.6 1817.07 151.439 1816.63 147.643C1816.19 143.701 1815.39 140.27 1814.22 137.35C1813.2 134.43 1811.67 132.167 1809.62 130.561C1807.58 128.809 1805.02 127.933 1801.96 127.933ZM1927.12 135.598C1925.52 135.598 1923.77 136.036 1921.87 136.912C1919.97 137.788 1918.14 139.175 1916.39 141.073C1914.64 142.825 1913.18 145.161 1912.01 148.081C1910.84 150.855 1910.26 154.213 1910.26 158.155V214H1875.66V157.06C1875.66 148.3 1875 141.073 1873.69 135.379C1872.52 129.539 1871.13 124.794 1869.53 121.144C1867.77 117.056 1865.8 113.771 1863.61 111.289L1891.43 102.529C1892.59 103.989 1893.84 105.668 1895.15 107.566C1896.17 109.172 1897.27 111.216 1898.43 113.698C1899.6 116.18 1900.55 119.027 1901.28 122.239C1904.93 115.231 1909.24 110.194 1914.2 107.128C1919.31 104.062 1925.3 102.529 1932.16 102.529C1935.23 102.529 1937.93 102.821 1940.26 103.405C1942.75 103.843 1944.79 104.354 1946.4 104.938L1937.42 138.007C1936.39 137.423 1935.01 136.912 1933.26 136.474C1931.65 135.89 1929.61 135.598 1927.12 135.598ZM1987.44 214.876C1982.33 214.876 1977.95 214.146 1974.3 212.686C1970.8 211.226 1967.81 209.255 1965.33 206.773C1962.99 204.145 1961.24 201.152 1960.07 197.794C1959.05 194.436 1958.54 190.786 1958.54 186.844V61.138L1993.14 55.225V179.398C1993.14 182.902 1993.72 185.384 1994.89 186.844C1996.2 188.158 1998.54 188.815 2001.9 188.815C2003.5 188.815 2005.26 188.669 2007.15 188.377C2009.2 188.085 2011.02 187.793 2012.63 187.501L2015.91 209.182C2013.72 210.204 2010 211.445 2004.75 212.905C1999.64 214.219 1993.87 214.876 1987.44 214.876ZM2103 215.752L2101.68 214.219C2100.81 213.343 2099.79 211.956 2098.62 210.058C2097.45 208.16 2096.28 205.897 2095.11 203.269C2093.95 200.495 2093.07 197.356 2092.49 193.852C2090 200.714 2086.35 206.043 2081.54 209.839C2076.72 213.489 2070.37 215.314 2062.48 215.314C2055.33 215.314 2049.05 214 2043.65 211.372C2038.39 208.744 2034.01 205.094 2030.51 200.422C2027 195.604 2024.38 189.837 2022.62 183.121C2021.02 176.405 2020.22 168.959 2020.22 160.783C2020.22 152.461 2021.53 144.723 2024.16 137.569C2026.93 130.415 2030.73 124.283 2035.55 119.173C2040.36 113.917 2046.13 109.829 2052.85 106.909C2059.56 103.989 2067.01 102.529 2075.18 102.529C2076.5 102.529 2077.89 102.602 2079.35 102.748C2080.95 102.894 2082.56 103.04 2084.16 103.186V55.444L2118.77 61.138V161.221C2118.77 169.835 2119.35 177.062 2120.52 182.902C2121.83 188.742 2123.22 193.487 2124.68 197.137C2126.14 200.641 2127.53 203.123 2128.84 204.583L2130.81 206.992L2103 215.752ZM2068.18 189.91C2070.37 189.91 2072.41 188.961 2074.31 187.063C2076.35 185.165 2078.1 182.61 2079.56 179.398C2081.02 176.186 2082.12 172.536 2082.85 168.448C2083.73 164.214 2084.16 159.761 2084.16 155.089V129.685C2083.14 129.247 2081.68 128.882 2079.78 128.59C2078.03 128.152 2076.5 127.933 2075.18 127.933C2071.68 127.933 2068.76 128.736 2066.42 130.342C2064.09 131.802 2062.19 133.919 2060.73 136.693C2059.42 139.321 2058.47 142.533 2057.88 146.329C2057.3 150.125 2057.01 154.213 2057.01 158.593C2057.01 162.681 2057.08 166.623 2057.23 170.419C2057.37 174.069 2057.81 177.354 2058.54 180.274C2059.42 183.194 2060.58 185.53 2062.04 187.282C2063.5 189.034 2065.55 189.91 2068.18 189.91Z" fill="#FF2929"/>
<path d="M644.279 346.201C644.714 347.288 644.279 348.374 642.975 349.461C641.671 350.439 639.606 351.091 636.781 351.417C631.891 352.069 626.892 352.775 621.785 353.536C616.678 354.188 611.462 354.894 606.137 355.655C605.92 361.197 605.92 366.739 606.137 372.281C608.636 372.281 611.625 372.064 615.102 371.629C618.688 371.086 622.328 370.434 626.023 369.673C629.718 368.912 633.249 368.152 636.618 367.391C640.095 366.522 643.029 365.815 645.42 365.272C646.615 364.946 647.865 364.729 649.169 364.62C650.473 364.403 651.614 364.403 652.592 364.62C653.679 364.729 654.548 365.109 655.2 365.761C655.852 366.413 656.178 367.337 656.178 368.532C656.178 368.858 655.798 369.347 655.037 369.999C654.276 370.651 653.298 371.357 652.103 372.118C651.016 372.77 649.821 373.422 648.517 374.074C647.322 374.617 646.235 375.052 645.257 375.378C638.52 377.551 631.891 379.453 625.371 381.083C618.851 382.604 612.494 383.419 606.3 383.528C602.714 383.637 599.997 382.713 598.15 380.757C596.303 378.692 595.325 375.758 595.216 371.955C594.999 366.63 594.999 361.251 595.216 355.818C593.369 354.731 592.445 353.21 592.445 351.254C592.662 349.189 593.64 347.777 595.379 347.016C595.596 343.865 595.759 340.713 595.868 337.562C595.977 334.302 596.14 331.096 596.357 327.945C595.162 327.728 594.075 327.13 593.097 326.152C592.228 325.174 591.793 324.087 591.793 322.892C591.793 321.914 592.01 321.045 592.445 320.284C592.88 319.415 593.695 318.763 594.89 318.328C596.846 317.893 599.237 317.404 602.062 316.861C604.887 316.318 607.767 315.829 610.701 315.394C613.744 314.959 616.623 314.579 619.34 314.253C622.165 313.927 624.556 313.71 626.512 313.601C628.794 313.384 630.967 313.601 633.032 314.253C635.205 314.905 637.216 316.155 639.063 318.002C639.498 319.523 639.172 320.664 638.085 321.425C637.107 322.186 635.803 322.675 634.173 322.892C632.543 323.109 630.587 323.381 628.305 323.707C626.023 323.924 623.632 324.196 621.133 324.522C618.742 324.848 616.297 325.174 613.798 325.5C611.407 325.717 609.125 325.989 606.952 326.315C606.952 326.532 606.952 326.804 606.952 327.13C607.061 327.347 607.115 327.565 607.115 327.782C606.898 330.607 606.735 333.433 606.626 336.258C606.517 339.083 606.409 341.909 606.3 344.734C610.864 343.973 615.537 343.321 620.318 342.778C625.099 342.126 628.903 341.691 631.728 341.474C634.01 341.257 636.238 341.528 638.411 342.289C640.584 343.05 642.54 344.354 644.279 346.201ZM673.318 333.976C673.427 335.715 673.59 337.888 673.807 340.496C674.133 342.995 674.459 345.658 674.785 348.483C675.111 351.2 675.437 353.916 675.763 356.633C676.198 359.35 676.578 361.849 676.904 364.131C678.1 361.74 679.567 358.806 681.305 355.329C683.044 351.852 684.837 348.537 686.684 345.386C688.64 342.126 690.596 339.409 692.552 337.236C694.617 334.954 696.464 333.813 698.094 333.813C699.833 333.813 701.409 334.682 702.821 336.421C704.343 338.051 705.647 340.061 706.733 342.452C707.82 344.843 708.744 347.396 709.504 350.113C710.374 352.83 711.08 355.22 711.623 357.285C712.058 355.872 712.601 354.297 713.253 352.558C714.014 350.711 714.775 348.863 715.535 347.016C716.405 345.06 717.328 343.158 718.306 341.311C719.393 339.464 720.534 337.834 721.729 336.421C723.142 334.9 724.663 333.813 726.293 333.161C727.923 332.4 729.119 332.02 729.879 332.02C730.857 332.02 731.998 332.346 733.302 332.998C734.715 333.541 736.128 334.302 737.54 335.28C738.953 336.258 740.257 337.453 741.452 338.866C742.756 340.17 743.789 341.528 744.549 342.941C746.071 345.875 747.266 349.081 748.135 352.558C749.113 356.035 749.82 359.35 750.254 362.501C750.689 365.652 750.961 368.478 751.069 370.977C751.287 373.368 751.45 375.052 751.558 376.03C751.558 377.443 751.395 378.529 751.069 379.29C750.743 379.942 750.146 380.485 749.276 380.92C748.081 381.463 747.049 381.681 746.179 381.572C745.31 381.355 744.604 380.974 744.06 380.431C743.517 379.888 743.082 379.29 742.756 378.638C742.43 377.877 742.213 377.225 742.104 376.682C741.778 374.183 741.398 371.629 740.963 369.021C740.637 366.413 740.257 363.914 739.822 361.523C739.388 359.024 738.844 356.742 738.192 354.677C737.649 352.504 737.051 350.602 736.399 348.972C736.182 348.537 735.802 347.994 735.258 347.342C734.824 346.581 734.28 345.875 733.628 345.223C733.085 344.571 732.542 344.028 731.998 343.593C731.455 343.158 731.075 342.887 730.857 342.778C729.771 342.778 728.63 343.81 727.434 345.875C726.239 347.831 725.098 350.222 724.011 353.047C722.925 355.872 721.892 358.861 720.914 362.012C720.045 365.055 719.393 367.663 718.958 369.836C718.958 372.661 718.415 374.78 717.328 376.193C716.242 377.497 715.101 378.149 713.905 378.149C712.71 378.149 711.406 377.714 709.993 376.845C708.689 375.867 707.82 374.78 707.385 373.585C706.733 371.846 706.027 369.89 705.266 367.717C704.506 365.544 703.691 363.316 702.821 361.034C702.061 358.752 701.246 356.524 700.376 354.351C699.616 352.178 698.855 350.222 698.094 348.483C696.573 350.548 695.052 352.83 693.53 355.329C692.118 357.828 690.705 360.382 689.292 362.99C687.988 365.598 686.684 368.206 685.38 370.814C684.185 373.313 683.044 375.541 681.957 377.497C681.197 378.692 680.382 379.779 679.512 380.757C678.643 381.626 677.611 382.061 676.415 382.061C675.546 382.061 674.622 381.681 673.644 380.92C672.666 380.051 671.743 379.018 670.873 377.823C670.004 376.628 669.189 375.269 668.428 373.748C667.776 372.227 667.287 370.705 666.961 369.184C666.092 364.511 665.331 359.404 664.679 353.862C664.136 348.211 663.593 342.724 663.049 337.399C662.941 335.552 663.158 333.867 663.701 332.346C664.353 330.716 665.549 329.629 667.287 329.086C669.135 328.76 670.547 329.032 671.525 329.901C672.503 330.77 673.101 332.129 673.318 333.976ZM792.487 404.392C792.378 405.587 791.835 406.674 790.857 407.652C789.879 408.739 788.792 409.228 787.597 409.119C785.749 409.01 784.337 408.304 783.359 407C782.381 405.696 781.892 404.609 781.892 403.74C781.892 399.611 781.783 395.318 781.566 390.863C781.348 386.299 781.077 381.626 780.751 376.845C779.338 377.062 778.034 376.954 776.839 376.519C775.752 375.976 774.991 375.161 774.557 374.074C773.796 372.227 773.905 370.597 774.883 369.184C775.861 367.771 777.436 366.413 779.61 365.109C779.066 361.088 778.523 357.122 777.98 353.21C777.545 349.298 777.056 345.495 776.513 341.8C776.404 341.148 776.458 340.55 776.676 340.007C776.893 339.464 777.165 338.975 777.491 338.54C777.817 337.997 778.414 337.508 779.284 337.073C780.696 336.53 782.272 336.964 784.011 338.377C785.858 339.79 787.108 341.583 787.76 343.756C788.086 345.821 788.412 348.211 788.738 350.928C789.172 353.536 789.553 356.416 789.879 359.567C792.161 358.154 794.28 356.633 796.236 355.003C798.3 353.373 800.039 351.634 801.452 349.787C802.973 347.94 804.114 346.038 804.875 344.082C805.635 342.017 805.853 339.898 805.527 337.725C805.309 335.878 804.494 334.248 803.082 332.835C801.669 331.314 799.441 330.499 796.399 330.39C793.682 330.281 790.965 330.499 788.249 331.042C785.641 331.585 783.033 332.292 780.425 333.161C777.925 334.03 775.426 335.063 772.927 336.258C770.536 337.453 768.2 338.649 765.918 339.844C764.396 340.713 762.875 341.094 761.354 340.985C759.941 340.768 759.017 340.224 758.583 339.355C757.605 337.182 757.659 335.226 758.746 333.487C759.941 331.748 761.734 330.118 764.125 328.597C766.189 327.402 768.634 326.206 771.46 325.011C774.394 323.707 777.436 322.62 780.588 321.751C783.848 320.773 787.108 320.121 790.368 319.795C793.736 319.36 796.942 319.415 799.985 319.958C803.027 320.393 805.744 321.425 808.135 323.055C810.634 324.576 812.644 326.858 814.166 329.901C816.013 334.9 816.502 339.518 815.633 343.756C814.872 347.885 813.242 351.689 810.743 355.166C808.352 358.535 805.364 361.632 801.778 364.457C798.3 367.174 794.769 369.619 791.183 371.792C791.726 377.66 792.106 383.474 792.324 389.233C792.541 394.992 792.595 400.045 792.487 404.392ZM864.506 329.738C867.766 330.933 870.483 332.726 872.656 335.117C874.938 337.508 876.677 340.224 877.872 343.267C879.067 346.201 879.719 349.244 879.828 352.395C880.045 355.546 879.719 358.48 878.85 361.197C877.655 364.24 876.133 367.228 874.286 370.162C872.439 373.096 870.32 375.704 867.929 377.986C865.538 380.268 862.822 382.115 859.779 383.528C856.736 384.941 853.368 385.647 849.673 385.647C845.218 385.647 841.469 384.615 838.426 382.55C835.383 380.485 832.993 377.823 831.254 374.563C829.515 371.303 828.374 367.608 827.831 363.479C827.396 359.35 827.505 355.22 828.157 351.091C828.592 348.048 829.298 345.114 830.276 342.289C831.363 339.355 832.721 336.801 834.351 334.628C835.981 332.346 837.828 330.499 839.893 329.086C842.066 327.673 844.511 326.967 847.228 326.967C848.749 326.967 850.651 327.293 852.933 327.945C855.215 328.488 857.334 329.303 859.29 330.39C860.703 329.086 862.441 328.869 864.506 329.738ZM858.312 341.637C857.117 340.876 855.704 339.898 854.074 338.703C852.553 337.399 851.194 336.747 849.999 336.747C848.695 336.747 847.391 337.345 846.087 338.54C844.892 339.735 843.805 341.148 842.827 342.778C841.958 344.299 841.197 345.875 840.545 347.505C839.893 349.135 839.458 350.439 839.241 351.417C838.915 353.047 838.698 355.003 838.589 357.285C838.48 359.567 838.643 361.849 839.078 364.131C839.513 366.304 840.328 368.315 841.523 370.162C842.827 371.901 844.729 373.15 847.228 373.911C848.749 374.346 850.542 374.346 852.607 373.911C854.672 373.368 856.682 372.444 858.638 371.14C860.703 369.836 862.604 368.097 864.343 365.924C866.19 363.751 867.603 361.251 868.581 358.426C869.668 355.275 869.668 352.015 868.581 348.646C867.603 345.169 865.538 342.669 862.387 341.148C861.626 341.691 860.866 341.963 860.105 341.963C859.344 341.963 858.747 341.854 858.312 341.637ZM950.944 382.876C950.075 384.071 949.097 384.886 948.01 385.321C946.924 385.647 945.946 385.81 945.076 385.81C943.555 385.701 942.142 385.212 940.838 384.343C939.534 383.365 938.719 382.387 938.393 381.409C937.741 379.562 937.035 377.497 936.274 375.215C935.514 372.933 934.753 370.651 933.992 368.369C933.34 365.978 932.634 363.696 931.873 361.523C931.113 359.241 930.406 357.176 929.754 355.329C927.581 359.132 925.516 362.99 923.56 366.902C921.604 370.705 919.431 374.672 917.04 378.801C915.954 380.431 914.704 381.572 913.291 382.224C911.879 382.767 910.683 382.985 909.705 382.876C908.293 382.767 906.989 382.224 905.793 381.246C904.707 380.268 903.837 379.344 903.185 378.475C901.99 376.519 900.795 374.02 899.599 370.977C898.404 367.826 897.263 364.566 896.176 361.197C895.198 357.72 894.275 354.297 893.405 350.928C892.536 347.451 891.83 344.354 891.286 341.637C890.96 339.79 890.96 338.051 891.286 336.421C891.721 334.791 892.699 333.867 894.22 333.65C896.068 333.541 897.752 334.193 899.273 335.606C900.795 336.91 901.664 338.214 901.881 339.518C902.316 341.691 902.805 344.082 903.348 346.69C904 349.189 904.652 351.743 905.304 354.351C906.065 356.959 906.771 359.513 907.423 362.012C908.184 364.511 908.945 366.739 909.705 368.695C911.335 366.087 913.128 363.099 915.084 359.73C917.149 356.253 919.105 352.938 920.952 349.787C922.8 346.527 924.484 343.702 926.005 341.311C927.527 338.92 928.722 337.453 929.591 336.91C930.243 336.475 931.167 336.53 932.362 337.073C933.558 337.508 934.427 338.16 934.97 339.029C937.361 343.81 939.317 349.081 940.838 354.84C942.468 360.491 944.044 365.761 945.565 370.651C947.087 368.695 948.717 366.141 950.455 362.99C952.194 359.73 953.878 356.307 955.508 352.721C957.138 349.135 958.66 345.549 960.072 341.963C961.485 338.377 962.626 335.171 963.495 332.346C964.365 329.412 965.56 327.999 967.081 328.108C969.037 328.325 970.722 328.977 972.134 330.064C973.547 331.151 974.09 332.292 973.764 333.487C971.374 343.05 968.277 351.852 964.473 359.893C960.67 367.826 956.16 375.487 950.944 382.876ZM1025 348.32C1020.77 350.819 1016.2 352.775 1011.31 354.188C1006.42 355.492 1001.15 356.144 995.502 356.144C995.719 359.947 996.806 362.99 998.762 365.272C1000.72 367.445 1003.16 368.749 1006.1 369.184C1007.84 369.401 1009.57 369.347 1011.31 369.021C1013.16 368.695 1014.84 368.206 1016.37 367.554C1018 366.793 1019.46 365.978 1020.77 365.109C1022.07 364.24 1023.21 363.37 1024.19 362.501C1025.17 361.632 1026.2 361.088 1027.29 360.871C1028.37 360.545 1029.19 360.491 1029.73 360.708C1031.25 361.251 1031.8 362.881 1031.36 365.598C1029.62 369.075 1027.12 372.064 1023.86 374.563C1020.6 376.954 1016.96 378.475 1012.94 379.127C1009.47 379.779 1005.88 379.616 1002.18 378.638C998.49 377.66 995.176 375.758 992.242 372.933C989.743 370.434 987.841 367.5 986.537 364.131C985.233 360.762 984.418 357.285 984.092 353.699C983.766 350.33 984.038 347.125 984.907 344.082C985.885 341.039 987.352 338.377 989.308 336.095C991.264 333.704 993.709 331.748 996.643 330.227C999.577 328.706 1003 327.836 1006.91 327.619C1011.58 327.293 1015.82 328.162 1019.63 330.227C1023.43 332.292 1026.09 335.171 1027.61 338.866C1028.48 340.931 1028.7 342.724 1028.26 344.245C1027.94 345.766 1026.85 347.125 1025 348.32ZM1006.26 337.236C1005.17 337.453 1003.98 337.834 1002.67 338.377C1001.48 338.92 1000.34 339.627 999.251 340.496C998.273 341.257 997.349 342.18 996.48 343.267C995.719 344.245 995.285 345.386 995.176 346.69C997.023 346.69 999.034 346.527 1001.21 346.201C1003.49 345.875 1005.66 345.495 1007.73 345.06C1009.9 344.517 1011.86 343.919 1013.59 343.267C1015.44 342.615 1016.96 341.909 1018.16 341.148C1017.29 339.083 1015.66 337.834 1013.27 337.399C1010.99 336.856 1008.65 336.801 1006.26 337.236ZM1091.44 330.39C1089.49 331.477 1087.42 332.618 1085.25 333.813C1083.18 335.008 1081.06 336.421 1078.89 338.051C1076.83 339.572 1074.82 341.42 1072.86 343.593C1071.01 345.658 1069.33 348.157 1067.81 351.091C1065.63 355.22 1064.17 359.458 1063.41 363.805C1062.64 368.043 1062.16 372.227 1061.94 376.356C1061.94 378.312 1061.45 380.322 1060.47 382.387C1059.6 384.343 1058.35 385.321 1056.72 385.321C1054.66 385.321 1052.97 384.289 1051.67 382.224C1050.47 380.051 1049.66 377.986 1049.22 376.03C1047.38 368.315 1045.86 360.708 1044.66 353.21C1043.47 345.603 1042.43 338.051 1041.56 330.553C1041.56 329.032 1042 328.054 1042.87 327.619C1043.85 327.184 1044.93 327.021 1046.13 327.13C1047.43 327.239 1048.68 327.565 1049.88 328.108C1051.07 328.651 1051.78 329.521 1052 330.716C1052.43 334.737 1052.97 338.975 1053.63 343.43C1054.28 347.777 1054.93 351.526 1055.58 354.677C1056.02 350.982 1057.21 347.396 1059.17 343.919C1061.12 340.442 1063.51 337.29 1066.34 334.465C1069.27 331.64 1072.53 329.249 1076.12 327.293C1079.81 325.337 1083.56 324.033 1087.37 323.381C1089 323.164 1090.35 323.164 1091.44 323.381C1092.53 323.598 1093.29 323.979 1093.72 324.522C1094.16 325.065 1094.21 325.935 1093.89 327.13C1093.67 328.325 1092.85 329.412 1091.44 330.39ZM1128.67 320.121C1128.45 321.208 1127.69 321.805 1126.38 321.914C1125.08 322.023 1123.99 322.077 1123.12 322.077C1120.41 322.186 1117.58 322.457 1114.65 322.892C1111.82 323.327 1108.83 323.979 1105.68 324.848C1104.38 325.283 1102.97 325.12 1101.45 324.359C1099.92 323.598 1099 322.077 1098.67 319.795C1098.67 318.926 1099 318.219 1099.65 317.676C1100.3 317.133 1101.07 316.644 1101.93 316.209C1103.35 315.557 1105.03 315.014 1106.99 314.579C1108.94 314.036 1110.9 313.655 1112.86 313.438C1114.92 313.221 1116.88 313.166 1118.72 313.275C1120.57 313.275 1122.09 313.438 1123.29 313.764C1125.03 314.307 1126.38 315.122 1127.36 316.209C1128.45 317.296 1128.88 318.6 1128.67 320.121ZM1124.92 374.4C1125.68 376.139 1126.06 378.04 1126.06 380.105C1126.17 382.061 1125.62 383.419 1124.43 384.18C1122.91 385.158 1121.28 385.104 1119.54 384.017C1117.8 382.93 1116.5 381.463 1115.63 379.616C1114.43 377.334 1113.51 374.563 1112.86 371.303C1112.2 367.934 1111.71 364.62 1111.39 361.36C1111.06 358.1 1110.85 355.057 1110.74 352.232C1110.74 349.407 1110.74 347.288 1110.74 345.875C1110.85 344.354 1111.28 342.941 1112.04 341.637C1112.8 340.333 1113.78 339.572 1114.97 339.355C1116.93 339.464 1118.51 340.387 1119.7 342.126C1120.9 343.756 1121.44 345.821 1121.33 348.32C1121.33 350.276 1121.39 352.449 1121.49 354.84C1121.6 357.231 1121.82 359.621 1122.15 362.012C1122.47 364.403 1122.85 366.739 1123.29 369.021C1123.72 371.194 1124.27 372.987 1124.92 374.4ZM1151.19 332.835C1151.52 334.465 1151.84 336.312 1152.17 338.377C1152.6 340.333 1153.04 342.398 1153.47 344.571C1153.91 346.636 1154.29 348.755 1154.61 350.928C1154.94 353.101 1155.21 355.166 1155.43 357.122C1156.73 354.297 1158.15 351.308 1159.67 348.157C1161.19 345.006 1162.82 342.126 1164.56 339.518C1166.4 336.801 1168.31 334.574 1170.26 332.835C1172.33 331.096 1174.55 330.227 1176.95 330.227C1180.53 330.227 1183.52 331.531 1185.91 334.139C1188.41 336.747 1190.47 340.007 1192.1 343.919C1193.84 347.722 1195.2 351.743 1196.18 355.981C1197.16 360.219 1197.97 363.968 1198.62 367.228C1199.28 370.162 1197.97 372.335 1194.71 373.748C1193.19 374.509 1192.05 374.617 1191.29 374.074C1190.53 373.531 1190.09 372.987 1189.99 372.444C1189.44 371.14 1188.74 368.858 1187.87 365.598C1187.11 362.338 1186.18 359.024 1185.1 355.655C1184.12 352.286 1182.98 349.352 1181.67 346.853C1180.37 344.354 1178.9 343.213 1177.27 343.43C1175.32 343.539 1173.58 345.006 1172.06 347.831C1170.75 350.113 1169.39 352.667 1167.98 355.492C1166.68 358.209 1165.37 361.034 1164.07 363.968C1162.76 366.793 1161.46 369.673 1160.16 372.607C1158.96 375.432 1157.82 378.04 1156.73 380.431C1155.97 381.192 1154.99 381.735 1153.8 382.061C1152.71 382.278 1151.57 382.17 1150.38 381.735C1149.29 381.409 1148.42 380.866 1147.77 380.105C1147.12 379.344 1146.79 378.584 1146.79 377.823C1145.81 369.347 1144.78 361.632 1143.69 354.677C1142.72 347.722 1141.41 340.605 1139.78 333.324C1139.02 330.825 1138.86 328.869 1139.29 327.456C1139.84 325.935 1141.47 325.337 1144.18 325.663C1147.99 326.315 1150.32 328.706 1151.19 332.835ZM1239.51 341.637C1240.38 342.832 1241.19 344.354 1241.95 346.201C1242.82 347.94 1243.48 349.733 1243.91 351.58C1244.56 354.514 1245.27 357.72 1246.03 361.197C1246.9 364.566 1247.71 368.097 1248.47 371.792C1249.34 375.487 1250.1 379.236 1250.76 383.039C1251.52 386.842 1252.17 390.483 1252.71 393.96C1253.36 398.741 1252.98 403.305 1251.57 407.652C1250.27 412.107 1248.04 416.074 1244.89 419.551C1241.74 423.028 1237.82 425.799 1233.15 427.864C1228.48 429.929 1223.21 431.07 1217.34 431.287C1216.04 431.178 1214.68 430.526 1213.27 429.331C1211.85 428.244 1211.15 427.103 1211.15 425.908C1211.04 424.713 1211.58 423.735 1212.78 422.974C1214.08 422.322 1215.39 421.887 1216.69 421.67C1218.97 421.453 1221.31 420.964 1223.7 420.203C1226.2 419.551 1228.53 418.573 1230.71 417.269C1232.88 415.965 1234.84 414.389 1236.58 412.542C1238.42 410.695 1239.84 408.521 1240.81 406.022C1241.57 404.066 1241.95 401.675 1241.95 398.85C1241.95 395.916 1241.74 393.036 1241.3 390.211C1240.98 387.386 1240.49 384.723 1239.84 382.224C1239.29 379.616 1238.8 377.66 1238.37 376.356C1237.61 377.117 1236.63 377.932 1235.43 378.801C1234.35 379.67 1233.1 380.485 1231.69 381.246C1230.27 382.007 1228.7 382.604 1226.96 383.039C1225.33 383.474 1223.64 383.637 1221.91 383.528C1220.06 383.419 1218.32 382.767 1216.69 381.572C1215.17 380.377 1213.81 378.855 1212.61 377.008C1211.42 375.052 1210.44 372.824 1209.68 370.325C1209.03 367.826 1208.7 365.218 1208.7 362.501C1208.92 355.981 1210.55 350.222 1213.59 345.223C1216.74 340.116 1221.74 336.149 1228.59 333.324C1229.13 333.215 1229.84 333.107 1230.71 332.998C1231.69 332.889 1232.66 332.889 1233.64 332.998C1234.62 332.998 1235.54 333.107 1236.41 333.324C1237.39 333.541 1238.21 333.867 1238.86 334.302C1240.05 335.171 1240.65 336.421 1240.65 338.051C1240.65 339.681 1240.27 340.876 1239.51 341.637ZM1218.97 363.968C1218.97 365.163 1219.08 366.522 1219.3 368.043C1219.51 369.456 1220.22 370.488 1221.42 371.14C1222.72 371.901 1224.3 372.009 1226.14 371.466C1228.1 370.923 1229.89 369.999 1231.52 368.695C1233.04 367.5 1234.02 366.196 1234.46 364.783C1235 363.262 1235 361.251 1234.46 358.752C1233.91 356.253 1233.32 353.645 1232.66 350.928C1232.01 348.211 1231.58 345.766 1231.36 343.593C1230.06 344.245 1228.64 345.169 1227.12 346.364C1225.71 347.559 1224.4 349.081 1223.21 350.928C1222.01 352.667 1220.98 354.623 1220.11 356.796C1219.35 358.969 1218.97 361.36 1218.97 363.968ZM1361.46 316.372C1361.24 317.024 1360.48 317.785 1359.17 318.654C1357.87 319.523 1356.78 319.958 1355.91 319.958C1351.24 319.523 1346.57 319.143 1341.9 318.817C1337.33 318.491 1332.66 318.274 1327.88 318.165C1328.53 321.968 1329.13 325.772 1329.67 329.575C1330.32 333.378 1330.92 337.182 1331.46 340.985C1340.7 340.659 1349.83 340.17 1358.85 339.518C1360.37 339.518 1361.89 340.007 1363.41 340.985C1364.93 341.963 1365.69 342.887 1365.69 343.756C1365.69 344.951 1365.21 346.038 1364.23 347.016C1363.25 347.885 1362.05 348.429 1360.64 348.646C1356.08 349.407 1351.46 350.004 1346.79 350.439C1342.22 350.765 1337.55 351.037 1332.77 351.254C1333.31 355.057 1333.75 358.861 1334.07 362.664C1334.51 366.359 1334.89 370.053 1335.21 373.748C1335.43 375.269 1335.27 376.899 1334.72 378.638C1334.29 380.268 1333.53 381.083 1332.44 381.083C1331.46 381.083 1330.54 380.811 1329.67 380.268C1328.8 379.725 1327.99 379.127 1327.23 378.475C1326.57 377.714 1326.03 376.899 1325.6 376.03C1325.16 375.161 1324.89 374.4 1324.78 373.748C1323.69 364.403 1322.5 355.112 1321.2 345.875C1320 336.638 1318.64 327.347 1317.12 318.002H1311.74C1310.22 318.002 1308.81 317.839 1307.5 317.513C1306.2 317.187 1305.22 316.372 1304.57 315.068C1304.35 314.742 1304.19 314.199 1304.08 313.438C1304.08 312.677 1304.13 311.917 1304.24 311.156C1304.46 310.395 1304.79 309.689 1305.22 309.037C1305.66 308.385 1306.25 307.95 1307.01 307.733C1311.25 307.081 1315.76 306.809 1320.54 306.918C1325.43 307.027 1330.16 307.353 1334.72 307.896C1339.4 308.331 1343.74 308.983 1347.76 309.852C1351.89 310.721 1355.43 311.645 1358.36 312.623C1360.21 313.71 1361.24 314.959 1361.46 316.372ZM1388.29 338.377C1387.64 341.311 1386.99 344.571 1386.34 348.157C1385.69 351.634 1385.2 355.003 1384.87 358.263C1384.65 361.523 1384.65 364.457 1384.87 367.065C1385.2 369.673 1385.9 371.52 1386.99 372.607C1388.84 372.933 1390.96 372.172 1393.35 370.325C1395.74 368.369 1398.07 365.924 1400.36 362.99C1402.64 360.056 1404.7 356.905 1406.55 353.536C1408.4 350.059 1409.7 347.016 1410.46 344.408C1410.9 343.104 1411.28 341.746 1411.6 340.333C1411.93 338.92 1412.09 337.453 1412.09 335.932C1412.09 335.063 1412.64 334.248 1413.72 333.487C1414.92 332.618 1415.9 332.129 1416.66 332.02C1417.2 331.911 1417.8 332.02 1418.45 332.346C1419.21 332.672 1419.86 333.161 1420.4 333.813C1421.06 334.356 1421.6 335.063 1422.03 335.932C1422.58 336.693 1422.85 337.508 1422.85 338.377C1423.07 341.637 1423.39 345.223 1423.83 349.135C1424.26 353.047 1424.75 356.959 1425.29 360.871C1425.95 364.783 1426.6 368.586 1427.25 372.281C1427.9 375.976 1428.55 379.29 1429.21 382.224C1429.53 383.419 1429.21 384.778 1428.23 386.299C1427.25 387.82 1426.16 388.744 1424.97 389.07C1423.99 389.287 1422.96 389.179 1421.87 388.744C1420.89 388.309 1420.13 387.44 1419.59 386.136C1419.05 384.615 1418.5 382.767 1417.96 380.594C1417.53 378.312 1417.09 375.976 1416.66 373.585C1416.33 371.086 1416 368.749 1415.68 366.576C1415.35 364.294 1415.13 362.392 1415.03 360.871C1413.4 363.805 1411.44 366.793 1409.16 369.836C1406.98 372.77 1404.59 375.487 1401.99 377.986C1399.49 380.377 1396.82 382.278 1394 383.691C1391.28 384.995 1388.46 385.484 1385.52 385.158C1381.18 384.615 1377.86 380.54 1375.58 372.933C1374.71 369.89 1374.28 366.522 1374.28 362.827C1374.38 359.132 1374.66 355.492 1375.09 351.906C1375.63 348.211 1376.23 344.734 1376.88 341.474C1377.64 338.214 1378.3 335.552 1378.84 333.487C1379.06 332.618 1379.49 331.857 1380.14 331.205C1380.8 330.444 1381.56 330.173 1382.43 330.39C1384.06 330.716 1385.52 331.694 1386.83 333.324C1388.24 334.954 1388.73 336.638 1388.29 338.377ZM1478.13 342.941C1480.2 342.832 1482.26 343.321 1484.33 344.408C1486.39 345.495 1487.42 347.179 1487.42 349.461C1487.21 351.308 1486.17 352.504 1484.33 353.047C1482.59 353.482 1481.17 353.699 1480.09 353.699C1477.91 353.699 1475.58 353.753 1473.08 353.862C1470.58 353.971 1468.03 354.134 1465.42 354.351C1465.2 357.937 1464.98 361.306 1464.77 364.457C1464.66 367.608 1464.55 370.434 1464.44 372.933C1464.33 375.324 1464.28 377.28 1464.28 378.801C1464.28 380.322 1464.33 381.137 1464.44 381.246C1466.83 380.811 1469.38 380.105 1472.1 379.127C1474.93 378.04 1477.7 376.899 1480.41 375.704C1483.24 374.4 1485.96 373.096 1488.56 371.792C1491.28 370.379 1493.83 369.075 1496.23 367.88C1497.31 367.337 1498.29 367.174 1499.16 367.391C1500.14 367.608 1500.73 368.097 1500.95 368.858C1501.17 370.053 1501.01 371.52 1500.46 373.259C1499.92 374.998 1498.94 376.573 1497.53 377.986C1495.9 379.29 1493.73 380.811 1491.01 382.55C1488.4 384.18 1485.58 385.756 1482.53 387.277C1479.49 388.798 1476.39 390.157 1473.24 391.352C1470.2 392.439 1467.48 393.091 1465.09 393.308C1461.51 393.634 1458.79 392.656 1456.94 390.374C1455.09 388.092 1454.06 385.212 1453.85 381.735C1453.63 378.258 1453.57 374.237 1453.68 369.673C1453.9 365.109 1454.12 360.273 1454.33 355.166C1452.27 355.383 1450.26 355.601 1448.3 355.818C1446.46 355.927 1444.66 356.09 1442.92 356.307C1441.51 356.307 1439.94 355.981 1438.2 355.329C1436.57 354.677 1435.75 353.427 1435.75 351.58C1435.75 350.928 1436.02 350.059 1436.57 348.972C1437.11 347.885 1438.31 347.07 1440.15 346.527C1444.61 345.766 1449.55 345.114 1454.99 344.571C1455.31 339.464 1455.69 334.519 1456.13 329.738C1456.56 324.957 1456.94 320.61 1457.27 316.698C1457.38 315.394 1457.76 314.253 1458.41 313.275C1459.06 312.297 1459.77 311.808 1460.53 311.808C1462.38 311.699 1464.11 312.188 1465.74 313.275C1467.48 314.253 1468.35 315.394 1468.35 316.698C1467.92 320.393 1467.48 324.576 1467.05 329.249C1466.72 333.922 1466.4 338.703 1466.07 343.593C1468.24 343.376 1470.31 343.267 1472.26 343.267C1474.33 343.158 1476.28 343.05 1478.13 342.941ZM1521.69 338.377C1521.03 341.311 1520.38 344.571 1519.73 348.157C1519.08 351.634 1518.59 355.003 1518.26 358.263C1518.05 361.523 1518.05 364.457 1518.26 367.065C1518.59 369.673 1519.3 371.52 1520.38 372.607C1522.23 372.933 1524.35 372.172 1526.74 370.325C1529.13 368.369 1531.47 365.924 1533.75 362.99C1536.03 360.056 1538.1 356.905 1539.94 353.536C1541.79 350.059 1543.09 347.016 1543.85 344.408C1544.29 343.104 1544.67 341.746 1545 340.333C1545.32 338.92 1545.48 337.453 1545.48 335.932C1545.48 335.063 1546.03 334.248 1547.11 333.487C1548.31 332.618 1549.29 332.129 1550.05 332.02C1550.59 331.911 1551.19 332.02 1551.84 332.346C1552.6 332.672 1553.25 333.161 1553.8 333.813C1554.45 334.356 1554.99 335.063 1555.43 335.932C1555.97 336.693 1556.24 337.508 1556.24 338.377C1556.46 341.637 1556.79 345.223 1557.22 349.135C1557.66 353.047 1558.14 356.959 1558.69 360.871C1559.34 364.783 1559.99 368.586 1560.64 372.281C1561.3 375.976 1561.95 379.29 1562.6 382.224C1562.93 383.419 1562.6 384.778 1561.62 386.299C1560.64 387.82 1559.56 388.744 1558.36 389.07C1557.38 389.287 1556.35 389.179 1555.26 388.744C1554.29 388.309 1553.53 387.44 1552.98 386.136C1552.44 384.615 1551.9 382.767 1551.35 380.594C1550.92 378.312 1550.48 375.976 1550.05 373.585C1549.72 371.086 1549.4 368.749 1549.07 366.576C1548.74 364.294 1548.53 362.392 1548.42 360.871C1546.79 363.805 1544.83 366.793 1542.55 369.836C1540.38 372.77 1537.99 375.487 1535.38 377.986C1532.88 380.377 1530.22 382.278 1527.39 383.691C1524.67 384.995 1521.85 385.484 1518.92 385.158C1514.57 384.615 1511.25 380.54 1508.97 372.933C1508.1 369.89 1507.67 366.522 1507.67 362.827C1507.78 359.132 1508.05 355.492 1508.48 351.906C1509.03 348.211 1509.62 344.734 1510.28 341.474C1511.04 338.214 1511.69 335.552 1512.23 333.487C1512.45 332.618 1512.88 331.857 1513.54 331.205C1514.19 330.444 1514.95 330.173 1515.82 330.39C1517.45 330.716 1518.92 331.694 1520.22 333.324C1521.63 334.954 1522.12 336.638 1521.69 338.377ZM1623.26 330.39C1621.3 331.477 1619.24 332.618 1617.07 333.813C1615 335.008 1612.88 336.421 1610.71 338.051C1608.65 339.572 1606.63 341.42 1604.68 343.593C1602.83 345.658 1601.15 348.157 1599.63 351.091C1597.45 355.22 1595.99 359.458 1595.22 363.805C1594.46 368.043 1593.98 372.227 1593.76 376.356C1593.76 378.312 1593.27 380.322 1592.29 382.387C1591.42 384.343 1590.17 385.321 1588.54 385.321C1586.48 385.321 1584.79 384.289 1583.49 382.224C1582.29 380.051 1581.48 377.986 1581.04 376.03C1579.2 368.315 1577.68 360.708 1576.48 353.21C1575.28 345.603 1574.25 338.051 1573.38 330.553C1573.38 329.032 1573.82 328.054 1574.69 327.619C1575.66 327.184 1576.75 327.021 1577.95 327.13C1579.25 327.239 1580.5 327.565 1581.7 328.108C1582.89 328.651 1583.6 329.521 1583.81 330.716C1584.25 334.737 1584.79 338.975 1585.44 343.43C1586.1 347.777 1586.75 351.526 1587.4 354.677C1587.84 350.982 1589.03 347.396 1590.99 343.919C1592.94 340.442 1595.33 337.29 1598.16 334.465C1601.09 331.64 1604.35 329.249 1607.94 327.293C1611.63 325.337 1615.38 324.033 1619.19 323.381C1620.82 323.164 1622.17 323.164 1623.26 323.381C1624.35 323.598 1625.11 323.979 1625.54 324.522C1625.98 325.065 1626.03 325.935 1625.71 327.13C1625.49 328.325 1624.67 329.412 1623.26 330.39ZM1672.55 348.32C1668.31 350.819 1663.75 352.775 1658.86 354.188C1653.97 355.492 1648.7 356.144 1643.04 356.144C1643.26 359.947 1644.35 362.99 1646.3 365.272C1648.26 367.445 1650.71 368.749 1653.64 369.184C1655.38 369.401 1657.12 369.347 1658.86 369.021C1660.7 368.695 1662.39 368.206 1663.91 367.554C1665.54 366.793 1667.01 365.978 1668.31 365.109C1669.61 364.24 1670.75 363.37 1671.73 362.501C1672.71 361.632 1673.74 361.088 1674.83 360.871C1675.92 360.545 1676.73 360.491 1677.27 360.708C1678.8 361.251 1679.34 362.881 1678.9 365.598C1677.17 369.075 1674.67 372.064 1671.41 374.563C1668.15 376.954 1664.51 378.475 1660.49 379.127C1657.01 379.779 1653.42 379.616 1649.73 378.638C1646.03 377.66 1642.72 375.758 1639.78 372.933C1637.29 370.434 1635.38 367.5 1634.08 364.131C1632.78 360.762 1631.96 357.285 1631.63 353.699C1631.31 350.33 1631.58 347.125 1632.45 344.082C1633.43 341.039 1634.89 338.377 1636.85 336.095C1638.81 333.704 1641.25 331.748 1644.19 330.227C1647.12 328.706 1650.54 327.836 1654.45 327.619C1659.13 327.293 1663.37 328.162 1667.17 330.227C1670.97 332.292 1673.63 335.171 1675.16 338.866C1676.03 340.931 1676.24 342.724 1675.81 344.245C1675.48 345.766 1674.4 347.125 1672.55 348.32ZM1653.8 337.236C1652.72 337.453 1651.52 337.834 1650.22 338.377C1649.02 338.92 1647.88 339.627 1646.79 340.496C1645.82 341.257 1644.89 342.18 1644.02 343.267C1643.26 344.245 1642.83 345.386 1642.72 346.69C1644.57 346.69 1646.58 346.527 1648.75 346.201C1651.03 345.875 1653.21 345.495 1655.27 345.06C1657.44 344.517 1659.4 343.919 1661.14 343.267C1662.99 342.615 1664.51 341.909 1665.7 341.148C1664.83 339.083 1663.2 337.834 1660.81 337.399C1658.53 336.856 1656.19 336.801 1653.8 337.236ZM1802.93 321.751C1791.73 321.208 1780.97 322.077 1770.65 324.359C1760.33 326.641 1750.11 329.738 1740.01 333.65C1737.4 334.628 1735.39 334.519 1733.98 333.324C1732.67 332.129 1732.02 330.933 1732.02 329.738C1732.78 327.673 1734.14 325.989 1736.1 324.685C1758.37 313.818 1780.65 309.798 1802.93 312.623C1804.01 312.949 1804.88 313.764 1805.53 315.068C1806.29 316.263 1806.57 317.296 1806.35 318.165C1806.13 319.252 1805.8 320.175 1805.37 320.936C1804.94 321.588 1804.12 321.86 1802.93 321.751ZM1779.78 378.638C1779.78 379.833 1779.34 380.92 1778.48 381.898C1777.71 382.767 1776.74 383.311 1775.54 383.528C1773.37 383.854 1771.96 383.474 1771.3 382.387C1770.65 381.3 1770.27 380.051 1770.16 378.638C1770.05 371.031 1769.89 363.479 1769.67 355.981C1769.56 348.374 1769.24 340.768 1768.7 333.161C1768.7 332.726 1768.64 332.237 1768.53 331.694C1768.42 331.042 1768.42 330.444 1768.53 329.901C1768.64 329.249 1768.86 328.706 1769.18 328.271C1769.62 327.836 1770.27 327.51 1771.14 327.293C1773.64 326.858 1775.43 327.293 1776.52 328.597C1777.61 329.792 1778.15 330.988 1778.15 332.183C1779.02 340.007 1779.56 347.777 1779.78 355.492C1780 363.207 1780 370.923 1779.78 378.638ZM1853.81 329.738C1857.07 330.933 1859.78 332.726 1861.96 335.117C1864.24 337.508 1865.98 340.224 1867.17 343.267C1868.37 346.201 1869.02 349.244 1869.13 352.395C1869.35 355.546 1869.02 358.48 1868.15 361.197C1866.96 364.24 1865.44 367.228 1863.59 370.162C1861.74 373.096 1859.62 375.704 1857.23 377.986C1854.84 380.268 1852.12 382.115 1849.08 383.528C1846.04 384.941 1842.67 385.647 1838.97 385.647C1834.52 385.647 1830.77 384.615 1827.73 382.55C1824.69 380.485 1822.29 377.823 1820.56 374.563C1818.82 371.303 1817.68 367.608 1817.13 363.479C1816.7 359.35 1816.81 355.22 1817.46 351.091C1817.89 348.048 1818.6 345.114 1819.58 342.289C1820.66 339.355 1822.02 336.801 1823.65 334.628C1825.28 332.346 1827.13 330.499 1829.19 329.086C1831.37 327.673 1833.81 326.967 1836.53 326.967C1838.05 326.967 1839.95 327.293 1842.23 327.945C1844.52 328.488 1846.64 329.303 1848.59 330.39C1850 329.086 1851.74 328.869 1853.81 329.738ZM1847.61 341.637C1846.42 340.876 1845.01 339.898 1843.38 338.703C1841.85 337.399 1840.5 336.747 1839.3 336.747C1838 336.747 1836.69 337.345 1835.39 338.54C1834.19 339.735 1833.11 341.148 1832.13 342.778C1831.26 344.299 1830.5 345.875 1829.85 347.505C1829.19 349.135 1828.76 350.439 1828.54 351.417C1828.22 353.047 1828 355.003 1827.89 357.285C1827.78 359.567 1827.95 361.849 1828.38 364.131C1828.81 366.304 1829.63 368.315 1830.82 370.162C1832.13 371.901 1834.03 373.15 1836.53 373.911C1838.05 374.346 1839.84 374.346 1841.91 373.911C1843.97 373.368 1845.98 372.444 1847.94 371.14C1850 369.836 1851.91 368.097 1853.64 365.924C1855.49 363.751 1856.9 361.251 1857.88 358.426C1858.97 355.275 1858.97 352.015 1857.88 348.646C1856.9 345.169 1854.84 342.669 1851.69 341.148C1850.93 341.691 1850.17 341.963 1849.41 341.963C1848.65 341.963 1848.05 341.854 1847.61 341.637ZM1919.71 329.738C1922.97 330.933 1925.68 332.726 1927.86 335.117C1930.14 337.508 1931.88 340.224 1933.07 343.267C1934.27 346.201 1934.92 349.244 1935.03 352.395C1935.25 355.546 1934.92 358.48 1934.05 361.197C1932.86 364.24 1931.34 367.228 1929.49 370.162C1927.64 373.096 1925.52 375.704 1923.13 377.986C1920.74 380.268 1918.02 382.115 1914.98 383.528C1911.94 384.941 1908.57 385.647 1904.88 385.647C1900.42 385.647 1896.67 384.615 1893.63 382.55C1890.59 380.485 1888.19 377.823 1886.46 374.563C1884.72 371.303 1883.58 367.608 1883.03 363.479C1882.6 359.35 1882.71 355.22 1883.36 351.091C1883.79 348.048 1884.5 345.114 1885.48 342.289C1886.56 339.355 1887.92 336.801 1889.55 334.628C1891.18 332.346 1893.03 330.499 1895.1 329.086C1897.27 327.673 1899.71 326.967 1902.43 326.967C1903.95 326.967 1905.85 327.293 1908.14 327.945C1910.42 328.488 1912.54 329.303 1914.49 330.39C1915.9 329.086 1917.64 328.869 1919.71 329.738ZM1913.51 341.637C1912.32 340.876 1910.91 339.898 1909.28 338.703C1907.75 337.399 1906.4 336.747 1905.2 336.747C1903.9 336.747 1902.59 337.345 1901.29 338.54C1900.09 339.735 1899.01 341.148 1898.03 342.778C1897.16 344.299 1896.4 345.875 1895.75 347.505C1895.1 349.135 1894.66 350.439 1894.44 351.417C1894.12 353.047 1893.9 355.003 1893.79 357.285C1893.68 359.567 1893.85 361.849 1894.28 364.131C1894.71 366.304 1895.53 368.315 1896.73 370.162C1898.03 371.901 1899.93 373.15 1902.43 373.911C1903.95 374.346 1905.74 374.346 1907.81 373.911C1909.87 373.368 1911.88 372.444 1913.84 371.14C1915.9 369.836 1917.81 368.097 1919.55 365.924C1921.39 363.751 1922.81 361.251 1923.78 358.426C1924.87 355.275 1924.87 352.015 1923.78 348.646C1922.81 345.169 1920.74 342.669 1917.59 341.148C1916.83 341.691 1916.07 341.963 1915.31 341.963C1914.55 341.963 1913.95 341.854 1913.51 341.637ZM1961.81 310.341C1962.35 322.186 1963.28 334.465 1964.58 347.179C1965.89 359.784 1967.3 371.846 1968.82 383.365C1969.15 388.146 1967.84 390.591 1964.91 390.7C1964.26 390.7 1963.6 390.483 1962.95 390.048C1962.3 389.505 1961.7 388.853 1961.16 388.092C1960.62 387.331 1960.07 386.516 1959.53 385.647C1959.09 384.778 1958.82 384.017 1958.71 383.365C1957.84 377.823 1957.03 371.955 1956.27 365.761C1955.51 359.567 1954.8 353.373 1954.15 347.179C1953.61 340.876 1953.12 334.737 1952.68 328.76C1952.25 322.783 1951.98 317.296 1951.87 312.297C1952.08 309.689 1952.47 307.516 1953.01 305.777C1953.55 303.93 1954.69 303.06 1956.43 303.169C1958.28 303.278 1959.58 304.038 1960.34 305.451C1961.21 306.755 1961.7 308.385 1961.81 310.341ZM2012.66 337.888C2012.45 336.693 2012.23 335.552 2012.01 334.465C2011.79 333.378 2011.25 332.672 2010.38 332.346C2008.53 331.803 2006.58 331.748 2004.51 332.183C2002.45 332.618 2000.55 333.324 1998.81 334.302C1997.07 335.171 1995.6 336.204 1994.41 337.399C1993.21 338.486 1992.56 339.464 1992.45 340.333C1992.13 341.963 1992.56 343.539 1993.76 345.06C1994.95 346.581 1996.69 348.103 1998.97 349.624C2002.78 351.906 2006.74 354.242 2010.87 356.633C2015 359.024 2018.48 361.469 2021.3 363.968C2024.13 366.467 2026.03 369.238 2027.01 372.281C2028.09 375.215 2027.88 378.584 2026.36 382.387C2025.16 385.321 2022.93 387.712 2019.67 389.559C2016.41 391.406 2012.83 392.873 2008.92 393.96C2005 394.938 2001.09 395.644 1997.18 396.079C1993.27 396.405 1989.95 396.568 1987.24 396.568C1986.58 396.568 1985.77 396.351 1984.79 395.916C1983.92 395.373 1983.05 394.775 1982.18 394.123C1981.42 393.471 1980.72 392.819 1980.06 392.167C1979.52 391.406 1979.25 390.754 1979.25 390.211C1979.25 388.255 1980.12 386.897 1981.86 386.136C1983.6 385.375 1985.39 384.995 1987.24 384.995C1989.84 384.995 1992.62 384.886 1995.55 384.669C1998.59 384.343 2001.47 383.908 2004.19 383.365C2006.9 382.713 2009.35 381.898 2011.52 380.92C2013.7 379.942 2015.22 378.692 2016.09 377.171C2016.85 375.867 2016.36 374.346 2014.62 372.607C2012.99 370.76 2010.76 368.858 2007.94 366.902C2005.22 364.946 2002.23 363.044 1998.97 361.197C1995.82 359.35 1993.1 357.665 1990.82 356.144C1988.54 354.623 1986.58 352.83 1984.95 350.765C1983.32 348.592 1982.29 345.929 1981.86 342.778C1981.75 339.953 1982.35 337.236 1983.65 334.628C1984.95 332.02 1986.64 329.738 1988.7 327.782C1990.88 325.717 1993.32 324.087 1996.04 322.892C1998.75 321.697 2001.47 321.099 2004.19 321.099C2008.86 321.316 2012.72 322.62 2015.76 325.011C2018.8 327.293 2020.6 330.716 2021.14 335.28C2021.14 336.801 2020.87 338.051 2020.33 339.029C2019.89 340.007 2019.08 340.605 2017.88 340.822C2016.36 341.039 2015.11 340.876 2014.13 340.333C2013.26 339.681 2012.77 338.866 2012.66 337.888Z" fill="#273E6B"/>
</svg>
